<?xml version="1.0" standalone="no"?><!DOCTYPE svg PUBLIC "-//W3C//DTD SVG 1.1//EN" "http://www.w3.org/Graphics/SVG/1.1/DTD/svg11.dtd"><svg t="1677191322261" class="icon" viewBox="0 0 1024 1024" version="1.1" xmlns="http://www.w3.org/2000/svg" p-id="7905" xmlns:xlink="http://www.w3.org/1999/xlink" width="200" height="200"><path d="M275.2 243.2c25.6-25.6 67.2-25.6 92.8 0l70.4 70.4c25.6 25.6 25.6 67.2 0 92.8l-35.2 35.2v3.2c19.2 28.8 41.6 54.4 67.2 80s51.2 48 80 67.2h3.2l35.2-35.2c25.6-25.6 67.2-25.6 92.8 0l70.4 70.4c25.6 25.6 25.6 67.2 0 92.8l-54.4 54.4c-28.8 28.8-76.8 38.4-112 19.2-83.2-41.6-156.8-92.8-220.8-156.8-64-64-115.2-137.6-156.8-220.8-19.2-38.4-9.6-83.2 19.2-115.2l48-57.6zM323.2 288l-57.6 54.4c-9.6 9.6-12.8 25.6-6.4 41.6 38.4 76.8 86.4 147.2 144 204.8 57.6 57.6 124.8 105.6 201.6 144 12.8 6.4 28.8 3.2 41.6-6.4l54.4-54.4v-3.2l-70.4-70.4h-3.2l-35.2 35.2c-22.4 22.4-57.6 25.6-83.2 6.4-32-22.4-60.8-48-86.4-73.6S371.2 512 348.8 480c-19.2-25.6-16-60.8 6.4-83.2l35.2-35.2v-3.2L323.2 288zM512 192c160 0 288 128 288 288 0 19.2-12.8 32-32 32s-32-12.8-32-32c0-124.8-99.2-224-224-224-19.2 0-32-12.8-32-32s12.8-32 32-32z m0 128c89.6 0 160 70.4 160 160 0 19.2-12.8 32-32 32-16 0-28.8-12.8-32-28.8V480c0-54.4-41.6-96-96-96-19.2 0-32-12.8-32-32s12.8-32 32-32z" fill="#202425" p-id="7906"></path></svg>