<?xml version="1.0" standalone="no"?><!DOCTYPE svg PUBLIC "-//W3C//DTD SVG 1.1//EN" "http://www.w3.org/Graphics/SVG/1.1/DTD/svg11.dtd"><svg t="1677191354859" class="icon" viewBox="0 0 1024 1024" version="1.1" xmlns="http://www.w3.org/2000/svg" p-id="8195" xmlns:xlink="http://www.w3.org/1999/xlink" width="200" height="200"><path d="M704 800H320a32 32 0 0 1-32-32V256a32 32 0 0 1 32-32h224a32 32 0 1 1 0 64h-192v448h320v-224a32 32 0 0 1 64 0v256a32 32 0 0 1-32 32z m-256-192a32 32 0 0 1-22.72-54.72l256-256a32 32 0 0 1 45.12 45.12l-256 256a32 32 0 0 1-22.4 9.6z" fill="#202425" p-id="8196"></path></svg>