<?xml version="1.0" standalone="no"?><!DOCTYPE svg PUBLIC "-//W3C//DTD SVG 1.1//EN" "http://www.w3.org/Graphics/SVG/1.1/DTD/svg11.dtd"><svg t="1677191089761" class="icon" viewBox="0 0 1024 1024" version="1.1" xmlns="http://www.w3.org/2000/svg" p-id="4581" xmlns:xlink="http://www.w3.org/1999/xlink" width="200" height="200"><path d="M352 448v-64a160 160 0 1 1 320 0v64h32a32 32 0 0 1 32 32v224a96 96 0 0 1-96 96h-256a96 96 0 0 1-96-96v-224a32 32 0 0 1 32-32h32z m32 64h-32v192a32 32 0 0 0 32 32h256a32 32 0 0 0 32-32v-192h-288z m224-64v-64a96 96 0 1 0-192 0v64h192z m-96 128a32 32 0 0 1 32 32v32a32 32 0 0 1-64 0v-32a32 32 0 0 1 32-32z" fill="#202425" p-id="4582"></path></svg>