<?xml version="1.0" encoding="UTF-8"?><svg id="_图层_1" xmlns="http://www.w3.org/2000/svg" viewBox="0 0 462.27 323.77"><defs><style>.cls-1{fill:#fff;}.cls-2{fill:none;}.cls-3{fill:#003d9e;}</style></defs><g><path class="cls-2" d="M104.46,170.71c-.07-.34-.14-.68-.21-1.02,.07,.34,.14,.68,.21,1.02Z"/><path class="cls-2" d="M153.05,74.07c-1.7,1.87-3.34,3.81-4.91,5.8,1.57-1.99,3.2-3.93,4.91-5.8Z"/><path class="cls-2" d="M156.54,70.4c-1.19,1.19-2.36,2.42-3.49,3.66,1.14-1.25,2.3-2.47,3.49-3.66Z"/><path class="cls-2" d="M127.94,166.66c.26,1.2,.54,2.4,.83,3.6-.3-1.2-.58-2.4-.83-3.6Z"/><path class="cls-2" d="M106.5,179.13c-.12-.44-.24-.88-.36-1.33,.12,.44,.24,.89,.36,1.33Z"/><path class="cls-2" d="M160.21,66.91c-1.25,1.14-2.47,2.3-3.66,3.49,1.19-1.19,2.42-2.36,3.66-3.49Z"/><path class="cls-2" d="M166.01,62c-1.33,1.04-2.63,2.12-3.91,3.23,1.28-1.11,2.58-2.18,3.91-3.23Z"/><path class="cls-2" d="M103.19,126.11c.34-2.33,.75-4.66,1.22-6.97-.47,2.31-.88,4.64-1.22,6.97Z"/><path class="cls-2" d="M103.35,164.64c-.59-3.73-1.01-7.47-1.26-11.23,.25,3.76,.67,7.51,1.26,11.23Z"/><path class="cls-2" d="M131.17,111.15c-.83,2.45-1.57,4.94-2.22,7.46,.65-2.53,1.39-5.01,2.22-7.46Z"/><path class="cls-2" d="M178.62,53.47c-1.47,.85-2.92,1.73-4.35,2.64,1.43-.92,2.88-1.8,4.35-2.64Z"/><path class="cls-2" d="M126.41,157.61c.15,1.21,.32,2.42,.52,3.62-.19-1.21-.37-2.41-.52-3.62Z"/><path class="cls-2" d="M122.54,212.02c.24,0,.48-.03,.71-.08-.23,.05-.47,.08-.71,.08h0Z"/><path class="cls-2" d="M147.93,159.71c.42-.1,.85-.18,1.28-.25-.43,.06-.85,.15-1.28,.25Z"/><path class="cls-2" d="M139.61,92.48c-.85,1.47-1.66,2.97-2.44,4.48,.78-1.52,1.59-3.01,2.44-4.48Z"/><path class="cls-2" d="M127.23,163.04c.21,1.21,.45,2.41,.71,3.61-.26-1.2-.49-2.41-.71-3.61Z"/><path class="cls-2" d="M121,211.65c-.22-.12-.44-.26-.63-.42,.19,.16,.4,.31,.63,.42Z"/><path class="cls-2" d="M133.92,103.92c-.67,1.58-1.3,3.17-1.89,4.79,.59-1.61,1.22-3.21,1.89-4.79Z"/><path class="cls-2" d="M120.37,211.22c-.1-.08-.19-.17-.27-.26,.09,.09,.18,.18,.27,.26Z"/><path class="cls-2" d="M121.71,211.92c-.25-.06-.49-.15-.71-.27,.22,.12,.46,.21,.71,.27Z"/><path class="cls-2" d="M146.6,81.88c-1.01,1.35-1.99,2.73-2.94,4.14,.95-1.4,1.93-2.78,2.94-4.14Z"/><path class="cls-2" d="M204.75,42.81c-1.68,.43-3.35,.91-5,1.42,1.65-.51,3.32-.99,5-1.42Z"/><path class="cls-2" d="M192.72,268.37c-1.95-.62-3.9-1.29-5.84-2.01,1.94,.72,3.89,1.39,5.84,2.01Z"/><path class="cls-2" d="M193.17,226.27s.02,0,.02,.01c.05-.03,.1-.06,.15-.09-.06,.02-.11,.05-.17,.08Z"/><path class="cls-2" d="M164.93,252.25c.15-.43,.37-.84,.65-1.2-.29,.36-.5,.77-.65,1.2Z"/><path class="cls-2" d="M198.59,270.07c4.9,1.29,9.84,2.27,14.78,2.94,.74,.1,1.47,.19,2.21,.28-.74-.09-1.47-.18-2.21-.28-4.94-.66-9.88-1.64-14.78-2.94Z"/><path class="cls-2" d="M222.23,273.9c-1.48-.1-2.96-.22-4.43-.37,1.48,.15,2.96,.27,4.43,.37Z"/><path class="cls-2" d="M194.5,243.86c-4.01-1.53-8.06-3.34-12.1-5.44-.15-.08-.31-.15-.47-.21,.16,.06,.32,.13,.47,.21,4.05,2.1,8.09,3.91,12.1,5.44Z"/><path class="cls-2" d="M204.75,247.14c1.13,.29,2.25,.56,3.38,.8-1.12-.24-2.25-.51-3.38-.8Z"/><path class="cls-2" d="M118.96,209.15c-3.48-6.04-6.55-12.67-9.14-19.71-.33-.9-.65-1.81-.97-2.71,.31,.91,.63,1.81,.97,2.71,2.59,7.03,5.66,13.66,9.14,19.71l.69,1.2c.06,.11,.14,.22,.21,.32-.08-.1-.15-.21-.21-.32l-.69-1.2Z"/><path class="cls-2" d="M112.59,93.35c-2.05,4.67-3.82,9.46-5.29,14.34-.46,1.51-.88,3.03-1.28,4.55,.4-1.52,.83-3.04,1.28-4.55,1.47-4.88,3.24-9.67,5.29-14.34Z"/><path class="cls-2" d="M197.94,245.1c2.28,.78,4.56,1.46,6.82,2.04-2.26-.58-4.53-1.27-6.82-2.04Z"/><path class="cls-2" d="M151.99,185.46l-22.81,21.4,22.81-21.4,21.38,22.85c.15,.17,.31,.33,.48,.48-.16-.16-.32-.32-.48-.48l-21.38-22.85Z"/><path class="cls-3" d="M372.53,113.5c-7.03-31.67-24.86-60.46-50.19-81.06C296.62,11.52,264.21,0,231.07,0s-61.89,10.11-87.2,29.24c-24.46,18.48-42.77,44.74-51.57,73.93-4.09,13.56-6.16,27.61-6.16,41.76,0,16.95,3.02,33.75,8.97,49.92,2.89,7.86,6.35,15.3,10.26,22.1l.68,1.19c2.92,5.09,8.14,8.59,13.96,9.37,.84,.11,1.69,.17,2.53,.17,5.06,0,9.82-1.97,13.41-5.54l2.72-2.71,12.6-11.82,10.66,11.39c2.36,2.53,5.16,4.59,8.21,6.11-1.37,.83-2.66,1.83-3.82,3l-11.51,11.51c-4.32,4.32-6.41,10.52-5.58,16.57,.83,6.05,4.51,11.46,9.83,14.46,16.85,9.49,34.43,15.5,52.23,17.88,6.57,.88,13.22,1.32,19.77,1.32,79.91,0,144.93-65.02,144.93-144.93,0-10.49-1.17-21.07-3.47-31.43Zm-12.24,34.76c-.03,1.11-.07,2.21-.13,3.31-.06,1.1-.13,2.2-.21,3.29-.04,.55-.09,1.09-.14,1.64-.19,2.18-.44,4.34-.74,6.49-.38,2.68-.84,5.34-1.37,7.97-.22,1.05-.44,2.1-.68,3.14-.96,4.17-2.13,8.26-3.49,12.26-.34,1-.69,2-1.05,2.98-.36,.99-.74,1.97-1.12,2.95-.58,1.47-1.19,2.92-1.82,4.36-.21,.48-.42,.96-.64,1.44-.65,1.43-1.32,2.85-2.02,4.25-.47,.94-.94,1.86-1.43,2.79-.49,.92-.99,1.84-1.49,2.75-.51,.91-1.03,1.81-1.56,2.71-.53,.9-1.07,1.78-1.62,2.67-.55,.88-1.11,1.76-1.68,2.62-1.43,2.17-2.92,4.29-4.47,6.36-.62,.83-1.25,1.65-1.89,2.47-.96,1.22-1.94,2.42-2.94,3.61-.33,.4-.67,.79-1.01,1.18-.68,.78-1.36,1.56-2.06,2.32-.7,.77-1.4,1.52-2.11,2.27-2.14,2.25-4.36,4.42-6.66,6.5-.77,.7-1.54,1.38-2.32,2.06-1.17,1.02-2.36,2.01-3.57,2.99-1.61,1.3-3.26,2.56-4.93,3.78-.84,.61-1.68,1.21-2.53,1.8-.85,.59-1.71,1.17-2.58,1.74s-1.74,1.13-2.62,1.68c-.88,.55-1.77,1.09-2.67,1.62-3.58,2.12-7.27,4.07-11.07,5.84-.95,.44-1.9,.88-2.86,1.3-3.84,1.68-7.78,3.18-11.8,4.49-1.01,.33-2.02,.64-3.03,.95-11.69,3.49-24.07,5.36-36.88,5.36-2.93,0-5.88-.1-8.84-.3-1.48-.1-2.96-.22-4.43-.37-.74-.07-1.48-.15-2.21-.24-.74-.09-1.47-.18-2.21-.28-4.94-.66-9.88-1.64-14.78-2.94-1.96-.52-3.92-1.09-5.87-1.7-1.95-.62-3.9-1.29-5.84-2.01-6.79-2.51-13.51-5.64-20.13-9.36-1.08-.61-1.83-1.71-2-2.93-.08-.61-.02-1.24,.17-1.81,.15-.43,.37-.84,.65-1.2,.1-.12,.2-.24,.31-.35l11.51-11.51c.3-.3,.64-.56,1.01-.75,.25-.13,.5-.24,.77-.32,.4-.12,.82-.18,1.25-.18,.34,0,.68,.04,1.01,.12,.17,.04,.33,.09,.49,.15,.16,.06,.32,.13,.47,.21,4.05,2.1,8.09,3.91,12.1,5.44,1.15,.44,2.29,.85,3.43,1.24,2.28,.78,4.56,1.46,6.82,2.04,1.13,.29,2.25,.56,3.38,.8,.56,.12,1.12,.24,1.68,.35,7.06,1.39,14.22,2.09,21.26,2.09,28.97,0,56.99-12.16,76.88-33.35,20.15-21.48,30.22-49.52,28.35-78.97-3.34-52.39-45.33-94.66-97.69-98.31-2.51-.18-5.04-.26-7.54-.26-9.09,0-17.91,1.15-26.32,3.33-1.68,.43-3.35,.91-5,1.42-7.42,2.31-14.5,5.43-21.12,9.24-1.47,.85-2.92,1.73-4.35,2.64-2.85,1.83-5.61,3.79-8.27,5.88-1.33,1.04-2.63,2.12-3.91,3.23-.64,.55-1.27,1.11-1.89,1.68-1.25,1.14-2.47,2.3-3.66,3.49-1.19,1.19-2.36,2.42-3.49,3.66-1.7,1.87-3.34,3.81-4.91,5.8-.52,.66-1.04,1.33-1.54,2.01-1.01,1.35-1.99,2.73-2.94,4.14-1.42,2.1-2.77,4.26-4.04,6.47-.85,1.47-1.66,2.97-2.44,4.48-1.17,2.27-2.25,4.59-3.25,6.96-.67,1.58-1.3,3.17-1.89,4.79-.3,.81-.58,1.62-.86,2.44-.83,2.45-1.57,4.94-2.22,7.46-2.17,8.42-3.33,17.24-3.33,26.32,0,4.22,.27,8.45,.79,12.68,.15,1.21,.32,2.42,.52,3.62,.1,.6,.2,1.21,.31,1.81,.21,1.21,.45,2.41,.71,3.61,.26,1.2,.54,2.4,.83,3.6,.3,1.2,.62,2.4,.96,3.59,.08,.28,.18,.56,.26,.84l11.6-11.55c1.57-1.56,3.59-2.65,5.7-3.26,.21-.06,.42-.12,.64-.17,.42-.1,.85-.18,1.28-.25,.64-.09,1.28-.15,1.9-.15,3.54,.06,6.95,1.58,9.37,4.17l22.47,24.01,35.74-38.62c2.44-4.99,4.27-11.86,2.17-19.75,0,0-2.75-4.79,7.4-14.93,0,0,30.14-34.17,40.23-26.66l-24.58,26.11s-2.34,4.24,.15,7.05c2.49,2.81,6.86,.96,6.86,.96,0,0,24.78-27.21,31.9-24.28,3.24,6.99-22.89,32.91-22.89,32.91,0,0-1.67,4.45,1.25,6.81,2.92,2.36,7.05-.15,7.05-.15l25.03-25.68c7.93,9.75-24.92,41.33-24.92,41.33-9.7,10.57-14.6,8.03-14.6,8.03-8.14-1.8-15.05,.46-19.95,3.18l-41.16,44.47c-.62,.67-1.3,1.27-2.04,1.79-2.2,1.56-4.86,2.43-7.59,2.43h-.02c-.91,0-1.81-.1-2.68-.28-.44-.09-.87-.21-1.3-.34-.43-.14-.84-.29-1.25-.47-.41-.18-.81-.38-1.2-.6-.97-.55-1.88-1.22-2.7-2-.16-.16-.32-.32-.48-.48l-21.38-22.85-22.81,21.4-1.41,1.32-2.89,2.87c-.31,.31-.68,.56-1.08,.72-.18,.07-.37,.13-.56,.17-.23,.05-.47,.08-.71,.08h0c-.15,0-.3,0-.44-.03-.13-.02-.26-.04-.38-.07-.25-.06-.49-.15-.71-.27-.22-.12-.44-.26-.63-.42-.1-.08-.19-.17-.27-.26-.09-.09-.17-.19-.24-.29-.08-.1-.15-.21-.21-.32l-.69-1.2c-3.48-6.04-6.55-12.67-9.14-19.71-.33-.9-.65-1.81-.97-2.71-.31-.91-.61-1.81-.9-2.72-.52-1.62-1-3.25-1.45-4.88-.12-.44-.24-.88-.36-1.33-.63-2.35-1.19-4.72-1.68-7.09-.07-.34-.14-.68-.21-1.02-.33-1.68-.64-3.36-.9-5.04-.59-3.73-1.01-7.47-1.26-11.23-.19-2.82-.28-5.65-.28-8.48,0-6.31,.46-12.6,1.38-18.82,.34-2.33,.75-4.66,1.22-6.97,.47-2.31,1.01-4.61,1.61-6.9,.4-1.52,.83-3.04,1.28-4.55,1.47-4.88,3.24-9.67,5.29-14.34,.34-.78,.69-1.55,1.05-2.32,1.43-3.09,2.98-6.12,4.64-9.08,3.33-5.93,7.13-11.61,11.35-16.96,3.16-4.01,6.56-7.85,10.18-11.47,1.81-1.81,3.67-3.57,5.58-5.27,.64-.57,1.28-1.13,1.93-1.68,1.3-1.11,2.62-2.19,3.96-3.25,.67-.53,1.35-1.05,2.03-1.57,22.57-17.06,49.46-26.07,77.75-26.07s58.45,10.27,81.39,28.93c22.6,18.38,38.51,44.06,44.78,72.3,2.05,9.25,3.1,18.69,3.1,28.04,0,1.11-.01,2.22-.04,3.33Zm-167.12,78.01c.06-.02,.11-.05,.17-.08-.05,.03-.1,.06-.15,.09,0,0-.02,0-.02-.01Z"/><path class="cls-1" d="M304.58,251.21c-.85,.59-1.71,1.17-2.58,1.74,.87-.57,1.73-1.15,2.58-1.74Z"/><path class="cls-1" d="M307.11,249.4c-.84,.61-1.68,1.21-2.53,1.8,.85-.59,1.7-1.19,2.53-1.8Z"/><path class="cls-1" d="M315.62,242.63c-1.17,1.02-2.36,2.01-3.57,2.99,1.21-.97,2.4-1.97,3.57-2.99Z"/><path class="cls-1" d="M328.77,229.48c-.68,.78-1.36,1.56-2.06,2.32,.7-.77,1.38-1.54,2.06-2.32Z"/><path class="cls-1" d="M332.73,224.69c-.96,1.22-1.94,2.42-2.94,3.61,1-1.19,1.98-2.39,2.94-3.61Z"/><path class="cls-1" d="M317.94,240.57c-.77,.7-1.54,1.38-2.32,2.06,.78-.68,1.56-1.36,2.32-2.06Z"/><path class="cls-1" d="M326.71,231.8c-.7,.77-1.4,1.52-2.11,2.27,.71-.75,1.42-1.51,2.11-2.27Z"/><path class="cls-1" d="M334.62,222.22c-.62,.83-1.25,1.65-1.89,2.47,.64-.81,1.27-1.64,1.89-2.47Z"/><path class="cls-1" d="M299.37,254.63c-.88,.55-1.77,1.09-2.67,1.62,.9-.53,1.78-1.07,2.67-1.62Z"/><path class="cls-1" d="M339.09,215.86c-1.43,2.17-2.92,4.29-4.47,6.36,1.55-2.07,3.04-4.2,4.47-6.36Z"/><path class="cls-1" d="M147.32,46.56c1.3-1.11,2.62-2.19,3.96-3.25-1.34,1.06-2.66,2.14-3.96,3.25Z"/><path class="cls-1" d="M139.81,53.52c1.81-1.81,3.67-3.57,5.58-5.27-1.91,1.7-3.78,3.46-5.58,5.27Z"/><path class="cls-1" d="M124.89,211.05c-.31,.31-.68,.56-1.08,.72,.4-.16,.77-.41,1.08-.72l2.89-2.87,1.41-1.32-1.41,1.32-2.89,2.87Z"/><path class="cls-1" d="M129.63,64.98c3.16-4.01,6.56-7.85,10.18-11.47-3.62,3.62-7.02,7.45-10.18,11.47Z"/><path class="cls-1" d="M118.28,81.95c3.33-5.93,7.13-11.61,11.35-16.96-4.22,5.35-8.02,11.03-11.35,16.96Z"/><path class="cls-1" d="M285.64,262.1c-.95,.44-1.9,.88-2.86,1.3,.96-.42,1.91-.85,2.86-1.3Z"/><path class="cls-1" d="M181.44,238.07c-.33-.08-.67-.12-1.01-.12-.43,0-.85,.06-1.25,.18,.4-.12,.82-.18,1.25-.18,.34,0,.68,.04,1.01,.12Z"/><path class="cls-1" d="M113.64,91.03c1.43-3.09,2.98-6.12,4.64-9.08-1.67,2.97-3.22,6-4.64,9.08Z"/><path class="cls-1" d="M190.59,210.05c.73-.52,1.42-1.12,2.04-1.79-.62,.67-1.3,1.27-2.04,1.79Z"/><path class="cls-1" d="M147.3,159.88c-2.11,.61-4.13,1.7-5.7,3.26l-11.6,11.55,11.6-11.55c1.57-1.56,3.59-2.65,5.7-3.26Z"/><path class="cls-1" d="M177.74,211.39c-.41-.18-.81-.38-1.2-.6,.39,.22,.79,.42,1.2,.6Z"/><path class="cls-1" d="M123.81,211.77c-.18,.07-.37,.13-.56,.17,.19-.04,.38-.1,.56-.17Z"/><path class="cls-1" d="M180.29,212.2c-.44-.09-.87-.21-1.3-.34,.43,.14,.86,.25,1.3,.34Z"/><path class="cls-1" d="M178.41,238.45c.25-.13,.5-.24,.77-.32-.27,.08-.52,.19-.77,.32Z"/><path class="cls-1" d="M104.25,169.69c-.33-1.68-.64-3.36-.9-5.04,.26,1.69,.57,3.37,.9,5.04Z"/><path class="cls-1" d="M270.98,267.89c-1.01,.33-2.02,.64-3.03,.95,1.02-.3,2.03-.62,3.03-.95Z"/><path class="cls-1" d="M106.14,177.8c-.63-2.35-1.19-4.72-1.68-7.09,.49,2.37,1.05,4.74,1.68,7.09Z"/><path class="cls-1" d="M122.54,212.02h0c-.15,0-.3,0-.44-.03,.15,.02,.3,.03,.44,.03Z"/><path class="cls-1" d="M107.95,184c-.52-1.62-1-3.25-1.45-4.88,.45,1.63,.93,3.26,1.45,4.88Z"/><path class="cls-1" d="M120.1,210.96c-.09-.09-.17-.19-.24-.29,.08,.1,.16,.2,.24,.29Z"/><path class="cls-1" d="M357.24,116.9c-6.27-28.24-22.18-53.92-44.78-72.3-22.94-18.65-51.84-28.93-81.39-28.93s-55.18,9.02-77.75,26.07c-.68,.52-1.36,1.04-2.03,1.57-1.34,1.06-2.66,2.14-3.96,3.25-.65,.55-1.29,1.12-1.93,1.68-1.91,1.7-3.78,3.46-5.58,5.27-3.62,3.62-7.02,7.45-10.18,11.47-4.22,5.35-8.02,11.03-11.35,16.96-1.67,2.97-3.22,6-4.64,9.08-.36,.77-.71,1.55-1.05,2.32-2.05,4.67-3.82,9.46-5.29,14.34-.46,1.51-.88,3.03-1.28,4.55-.6,2.29-1.13,4.59-1.61,6.9-.47,2.31-.88,4.64-1.22,6.97-.92,6.22-1.38,12.51-1.38,18.82,0,2.83,.09,5.66,.28,8.48,.25,3.76,.67,7.51,1.26,11.23,.26,1.69,.57,3.37,.9,5.04,.07,.34,.14,.68,.21,1.02,.49,2.37,1.05,4.74,1.68,7.09,.12,.44,.24,.89,.36,1.33,.45,1.63,.93,3.26,1.45,4.88,.29,.91,.59,1.82,.9,2.72,.31,.91,.63,1.81,.97,2.71,2.59,7.03,5.66,13.66,9.14,19.71l.69,1.2c.06,.11,.14,.22,.21,.32,.08,.1,.16,.2,.24,.29,.09,.09,.18,.18,.27,.26,.19,.16,.4,.31,.63,.42s.46,.21,.71,.27c.12,.03,.25,.06,.38,.07,.15,.02,.3,.03,.44,.03,.24,0,.48-.03,.71-.08,.19-.04,.38-.1,.56-.17,.4-.16,.77-.41,1.08-.72l2.89-2.87,1.41-1.32,22.81-21.4,21.38,22.85c.15,.17,.31,.33,.48,.48,.81,.79,1.72,1.46,2.7,2,.39,.22,.79,.42,1.2,.6,.41,.18,.83,.34,1.25,.47,.43,.14,.86,.25,1.3,.34,.88,.18,1.78,.28,2.68,.28h.02c2.73,0,5.39-.87,7.59-2.43,.73-.52,1.42-1.12,2.04-1.79l40.28-43.52h0l.88-.95c4.9-2.72,11.81-4.98,19.95-3.18,0,0,4.91,2.54,14.6-8.03,0,0,32.84-31.58,24.92-41.33l-25.03,25.68s-4.14,2.51-7.05,.15c-2.92-2.36-1.25-6.81-1.25-6.81,0,0,26.13-25.92,22.89-32.91-7.12-2.94-31.9,24.28-31.9,24.28,0,0-4.37,1.86-6.86-.96-2.49-2.81-.15-7.05-.15-7.05l24.58-26.11c-10.08-7.5-40.23,26.66-40.23,26.66-10.15,10.14-7.4,14.93-7.4,14.93,2.1,7.89,.27,14.77-2.17,19.75h0s-35.74,38.62-35.74,38.62l-22.47-24.01c-2.42-2.59-5.83-4.11-9.37-4.17-.63,0-1.26,.06-1.9,.15-.43,.06-.85,.15-1.28,.25-.21,.05-.42,.11-.64,.17-2.11,.61-4.13,1.7-5.7,3.26l-11.6,11.55c-.08-.28-.18-.56-.26-.84-.34-1.19-.66-2.39-.96-3.59s-.58-2.4-.83-3.6c-.26-1.2-.49-2.41-.71-3.61-.11-.6-.21-1.21-.31-1.81-.19-1.21-.37-2.41-.52-3.62-.53-4.23-.79-8.46-.79-12.68,0-9.09,1.15-17.91,3.33-26.32,.65-2.53,1.39-5.01,2.22-7.46,.28-.82,.56-1.63,.86-2.44,.59-1.61,1.22-3.21,1.89-4.79,1-2.36,2.09-4.69,3.25-6.96,.78-1.52,1.59-3.01,2.44-4.48,1.27-2.21,2.62-4.37,4.04-6.47,.95-1.4,1.93-2.78,2.94-4.14,.51-.68,1.02-1.35,1.54-2.01,1.57-1.99,3.2-3.93,4.91-5.8,1.14-1.25,2.3-2.47,3.49-3.66,1.19-1.19,2.42-2.36,3.66-3.49,.62-.57,1.26-1.13,1.89-1.68,1.28-1.11,2.58-2.18,3.91-3.23,2.66-2.09,5.42-4.05,8.27-5.88,1.43-.92,2.88-1.8,4.35-2.64,6.62-3.81,13.7-6.93,21.12-9.24,1.65-.51,3.32-.99,5-1.42,8.42-2.17,17.24-3.33,26.32-3.33,2.5,0,5.03,.09,7.54,.26,52.36,3.66,94.35,45.92,97.69,98.31,1.88,29.44-8.19,57.49-28.35,78.97-19.89,21.2-47.91,33.35-76.88,33.35-7.04,0-14.2-.7-21.26-2.09-.56-.11-1.12-.23-1.68-.35-1.12-.24-2.25-.51-3.38-.8-2.26-.58-4.53-1.27-6.82-2.04-1.14-.39-2.29-.8-3.43-1.24-4.01-1.53-8.06-3.34-12.1-5.44-.15-.08-.31-.15-.47-.21-.16-.06-.32-.11-.49-.15-.33-.08-.67-.12-1.01-.12-.43,0-.85,.06-1.25,.18-.27,.08-.52,.19-.77,.32-.37,.2-.71,.45-1.01,.75l-11.51,11.51c-.11,.11-.21,.23-.31,.35-.29,.36-.5,.77-.65,1.2-.19,.58-.26,1.2-.17,1.81,.17,1.23,.91,2.33,2,2.93,6.61,3.72,13.33,6.85,20.13,9.36,1.94,.72,3.89,1.39,5.84,2.01,1.95,.62,3.91,1.19,5.87,1.7,4.9,1.29,9.84,2.27,14.78,2.94,.74,.1,1.47,.19,2.21,.28,.74,.09,1.48,.17,2.21,.24,1.48,.15,2.96,.27,4.43,.37,2.96,.2,5.91,.3,8.84,.3,12.81,0,25.19-1.87,36.88-5.36,1.02-.3,2.03-.62,3.03-.95,4.02-1.31,7.96-2.81,11.8-4.49,.96-.42,1.91-.85,2.86-1.3,3.79-1.77,7.48-3.72,11.07-5.84,.9-.53,1.78-1.07,2.67-1.62,.88-.55,1.76-1.11,2.62-1.68s1.73-1.15,2.58-1.74c.85-.59,1.7-1.19,2.53-1.8,1.67-1.22,3.32-2.48,4.93-3.78,1.21-.97,2.4-1.97,3.57-2.99,.78-.68,1.56-1.36,2.32-2.06,2.3-2.09,4.52-4.26,6.66-6.5,.71-.75,1.42-1.51,2.11-2.27,.7-.77,1.38-1.54,2.06-2.32,.34-.39,.68-.78,1.01-1.18,1-1.19,1.98-2.39,2.94-3.61,.64-.81,1.27-1.64,1.89-2.47,1.55-2.07,3.04-4.2,4.47-6.36,.57-.87,1.13-1.74,1.68-2.62,.55-.88,1.09-1.77,1.62-2.67,.53-.9,1.05-1.8,1.56-2.71,.51-.91,1.01-1.82,1.49-2.75,.49-.92,.96-1.85,1.43-2.79,.7-1.4,1.37-2.82,2.02-4.25,.22-.48,.43-.96,.64-1.44,.63-1.44,1.24-2.89,1.82-4.36,.39-.98,.76-1.96,1.12-2.95,.36-.99,.71-1.98,1.05-2.98,1.36-4,2.52-8.09,3.49-12.26,.24-1.04,.47-2.09,.68-3.14,.54-2.63,1-5.28,1.37-7.97,.3-2.15,.55-4.31,.74-6.49,.05-.54,.09-1.09,.14-1.64,.08-1.09,.15-2.19,.21-3.29,.06-1.1,.1-2.2,.13-3.31,.03-1.11,.04-2.22,.04-3.33,0-9.35-1.04-18.78-3.1-28.04Z"/></g><g><path class="cls-2" d="M142.4,259.65c0-.14-.01-.27,0-.41-.09,.2-.22,.38-.32,.57,.11-.05,.22-.11,.33-.16Z"/><path class="cls-1" d="M17.18,229.88l-6.49,25.02c-.23,.9,.52,1.76,1.68,1.76h13.09c1.16,0,2.26-.86,2.49-1.76l5.91-22.64h4.75c.98,0,2.61,.43,2.32,1.38l-1.39,5.56c-.35,1.28-2.26,1.38-3.42,1.38h-2.37l-.93,3.57c3.65,0,4.57,8.04,3.88,10.89-.17,.71,.75,1.62,1.62,1.62h11.32c-.23-.96-.26-1.96,0-2.97l1.89-7.29c-.1-.1-.19-.21-.29-.3-1.16-.95-2.37-1.52-4.57-1.85h.75s.09,0,.14,0c1.73,0,3.37-.37,4.79-1.01l3.65-14.08c-1.12-.65-2.63-1.04-4.41-1.04H19.73c-1.16,0-2.32,.86-2.55,1.76Z"/><path class="cls-1" d="M63.05,229.88l-6.49,25.02c-.23,.95,.52,1.76,1.68,1.76h31.79c.06,0,.12-.03,.19-.03-1.05-1.8-1.34-3.84-.81-5.91h-14.14l1.51-5.75h10.71c1.16,0,2.26-.81,2.55-1.76l.35-1.52c.29-1-.41-1.81-1.56-1.81h-10.71l1.45-5.8h14.17l.61-2.4c.34-1.32,.98-2.5,1.82-3.55h-30.56c-1.16,0-2.32,.81-2.55,1.76Z"/><path class="cls-1" d="M101.28,232.88l-.81,3.19c-1.27,4.71,2.89,6.47,7.59,7.04l10.6,1.28c1.16,.14,2.03,.95,2.61,1.66,.75,.95,.7,1.9,.41,3.09-.46,1.71-2.26,3.33-4.4,3.33s-3.07-1.62-2.61-3.33c.35-1.24,.46-2.57-1.39-2.57h-13.43c-1.16,0-2.32,.81-2.55,1.76l-.93,3.57c-.81,3.14,3.07,4.76,6.37,4.76h26.98c3.3,0,8.05-1.62,8.86-4.76l.81-3.19c1.33-5.18-2.49-6.42-7.64-7.04l-10.65-1.28c-3.01-.38-3.59-2.24-2.95-4.76,.46-1.71,2.32-3.38,4.4-3.38s3.07,1.66,2.61,3.38c-.29,1.24-.41,2.57,1.45,2.57h13.38c.41,0,.79-.12,1.16-.27-.32-.24-.65-.48-.93-.76-1.65-1.71-2.25-3.93-1.66-6.12l.56-2.31c.03-.13,.1-.25,.14-.38-.72-.15-1.45-.24-2.16-.24h-26.98c-3.3,0-7.99,1.62-8.8,4.76Z"/><path class="cls-1" d="M146.05,229.88l-.58,2.38c-.29,1,.46,1.81,1.68,1.81h10.13l-5.33,20.78c-.29,1,.46,1.81,1.68,1.81h12.8c.17,0,.34-.05,.51-.08-.15-.86-.15-1.74,.09-2.63,.21-.81,.58-1.59,1.1-2.34l2.94-4.46,3.35-13.09h5.27l3.92-5.94h-34.9c-1.22,0-2.43,.81-2.66,1.76Z"/><path class="cls-1" d="M173.97,255.18c-.23,.81,.23,1.47,1.22,1.47h14.3c1.16,0,2.66-.81,3.13-1.76l2.14-3.95h8.57v3.95c0,.95,1.16,1.76,2.37,1.76h12.83c-1.1-1.84-1.43-3.94-.89-5.96l2.39-9.29-1.66-11.53c-.12-.9-1.04-1.76-2.26-1.76h-22.35c-1.22,0-2.66,.86-3.24,1.76l-16.21,24.59c-.17,.24-.29,.48-.35,.71Zm29.24-20.54l.12,12.08h-6.43l6.31-12.08Z"/><path class="cls-1" d="M230.26,229.88l-5.67,22.02c-.7,2.62,2.32,4.76,6.66,4.76h25.07c1.5,0,2.95-.27,4.25-.71-.09-.75-.09-1.5,.1-2.26l6.48-25c.05-.19,.14-.37,.21-.56h-10.41c-1.22,0-2.43,.81-2.66,1.76l-4.98,19.26c-.46,1.85-2.49,3.33-4.46,3.33s-3.24-1.47-2.78-3.33l4.98-19.26c.23-.95-.52-1.76-1.68-1.76h-12.45c-1.22,0-2.43,.81-2.66,1.76Z"/><path class="cls-1" d="M269.3,256.66h13.09c1.16,0,2.26-.86,2.49-1.76l5.91-22.64h4.75c.98,0,2.61,.43,2.32,1.38l-1.39,5.56c-.35,1.28-2.26,1.38-3.42,1.38h-2.37l-.93,3.57c3.65,0,4.57,8.04,3.88,10.89-.17,.71,.75,1.62,1.62,1.62h9.96c-.16-.88-.17-1.8,.08-2.71,.21-.81,.58-1.59,1.1-2.34l2.83-4.29c-.33-.47-.69-.9-1.05-1.22-1.16-.95-2.37-1.52-4.57-1.85h.75s.09,0,.14,0c4.17,0,7.98-2.08,8.78-5.18l1.51-5.75c.81-3.14-2.03-5.18-6.25-5.18h-31.85c-1.16,0-2.32,.86-2.55,1.76l-6.49,25.02c-.23,.9,.52,1.76,1.68,1.76Z"/><path class="cls-1" d="M328.78,229.88l-16.21,24.59c-.17,.24-.29,.48-.35,.71-.23,.81,.23,1.47,1.22,1.47h14.3c1.16,0,2.66-.81,3.13-1.76l2.14-3.95h8.57v3.95c0,.95,1.16,1.76,2.37,1.76h11.14c-.23-.96-.26-1.96,0-2.97l3.2-12.32-1.65-11.48c-.12-.9-1.04-1.76-2.26-1.76h-22.35c-1.22,0-2.66,.86-3.24,1.76Zm12.68,4.76l.12,12.08h-6.43l6.31-12.08Z"/><path class="cls-1" d="M368.52,229.88l-6.49,25.02c-.23,.95,.52,1.76,1.68,1.76h13.32c1.16,0,2.26-.81,2.49-1.76l3.36-12.84,6.66,13.27c.35,.62,.87,.95,.87,.95,.58,.33,1.22,.38,1.85,.38h10.65c1.22,0,2.32-.81,2.55-1.76l4.24-16.36c-.67-.39-1.29-.83-1.81-1.37-1.65-1.71-2.25-3.93-1.66-6.12l.56-2.31c.05-.21,.15-.41,.22-.62h-10.01c-1.16,0-2.37,.81-2.61,1.76l-3.42,13.17-6.49-13.7c-.52-.86-1.22-1.24-2.49-1.24h-10.94c-1.16,0-2.32,.81-2.55,1.76Z"/><path class="cls-1" d="M413.75,229.88l-.58,2.38c-.29,1,.46,1.81,1.68,1.81h10.13l-5.33,20.78c-.29,1,.46,1.81,1.68,1.81h12.8c1.22,0,2.37-.81,2.66-1.81l5.33-20.78h9.79c1.16,0,2.37-.81,2.66-1.81l.58-2.38c.23-.95-.52-1.76-1.68-1.76h-37.06c-1.22,0-2.43,.81-2.66,1.76Z"/><path class="cls-1" d="M200.32,266.7c-1.73-1.44-4.54-2.35-7.96-2.35h-44.73c-1.77,0-3.54,1.18-3.88,2.56l-9.35,36.32c-.42,1.45,.76,2.63,2.53,2.63h18.11c1.68,0,3.37-1.18,3.79-2.63l3.29-12.94h23.5c3.41,0,6.71-.91,9.19-2.34l5.51-21.25Zm-22.87,5.74l-2.7,10.59c-.34,1.11-2.7,2.01-5.22,2.01h-6.07l3.88-14.67h6.07c2.53,0,4.38,.9,4.04,2.08Z"/><path class="cls-1" d="M259.59,305.86c.41,0,.81-.05,1.19-.14-1.86-2.39-2.47-5.19-1.73-7.99l.85-3.28c-.79-1.55-1.78-3.02-2.84-3.95-1.68-1.38-3.45-2.21-6.66-2.7h1.1c.07,0,.14,0,.21,0,4.5,0,8.7-1.67,11.04-4.37l3.44-13.31c.11-.44,.25-.87,.42-1.29-.93-2.79-4.41-4.48-9.05-4.48h-46.33c-1.68,0-3.37,1.25-3.71,2.56l-9.44,36.39c-.34,1.31,.76,2.56,2.44,2.56h19.04c1.68,0,3.29-1.25,3.62-2.56l8.59-32.93h6.91c1.43,0,3.79,.62,3.37,2.01l-2.02,8.09c-.51,1.87-3.29,2.01-4.97,2.01h-3.45l-1.35,5.19c5.31,0,6.65,11.69,5.64,15.84-.25,1.04,1.1,2.35,2.36,2.35h21.31Z"/><path class="cls-1" d="M322.86,264.35h-36.48c-6.32,0-12.3,3.11-13.23,6.92l-7.16,27.68c-1.01,3.81,3.37,6.92,9.69,6.92h36.48c6.32,0,12.22-3.11,13.23-6.92l7.16-27.68c.93-3.81-3.37-6.92-9.69-6.92Zm-15.84,10.93l-5.05,19.65c-.67,2.7-3.62,4.84-6.57,4.84s-4.63-2.14-3.96-4.84l5.05-19.65c.76-2.7,3.71-4.91,6.57-4.91s4.72,2.21,3.96,4.91Z"/><g><polygon class="cls-3" points="203.21 234.64 196.9 246.72 203.33 246.72 203.21 234.64"/><polygon class="cls-3" points="341.46 234.64 335.15 246.72 341.58 246.72 341.46 234.64"/><path class="cls-3" d="M460.3,224.92c-1.36-1.36-3.27-2.22-5.37-2.5-.45-.07-.9-.12-1.37-.12-.03,0-.06,0-.09,0h-37.41c-.99,0-1.96,.17-2.88,.44-.93-.26-1.9-.44-2.91-.44h-13.77c-2.67,0-5.18,1.07-6.99,2.78-1.82-1.8-4.41-2.78-7.5-2.78h-11.65c-3.17,0-6.1,1.53-7.91,3.86-1.63-2.31-4.64-3.86-8.08-3.86h-23.36c-3.8,0-7.74,2.27-9.6,5.53l-.38,.65c-.41-.8-.93-1.57-1.62-2.27-2.45-2.49-6.43-3.91-10.91-3.91h-33.29c-.99,0-1.96,.17-2.88,.45-.93-.27-1.91-.45-2.93-.45h-14.04c-1.78,0-3.49,.49-4.97,1.3-1.46-.82-3.18-1.3-5.02-1.3h-14.23c-2.9,0-5.6,1.26-7.44,3.21-1.7-1.95-4.48-3.21-7.59-3.21h-24.43c-.97,0-1.95,.16-2.91,.44-.95-.28-1.97-.44-3.01-.44h-39.49c-1.36,0-2.67,.28-3.88,.78-1.66-.5-3.47-.78-5.34-.78h-29.71c-1.87,0-3.84,.31-5.73,.91-1.27-.58-2.72-.91-4.23-.91H62.53c-1.62,0-3.18,.41-4.57,1.11-1.9-.72-4.07-1.11-6.39-1.11H16.3c-4.51,0-8.63,3.12-9.57,7.25L.2,257.93c-.57,2.49,.09,5.02,1.79,6.97,1.69,1.92,4.2,3.03,6.9,3.03h13.19c2.51,0,4.89-.98,6.67-2.56,1.68,1.63,3.94,2.56,6.29,2.56h14.76c.95,0,1.86-.16,2.74-.39,.83,.23,1.69,.39,2.58,.39h32.04c1.99,0,3.89-.64,5.48-1.68,2.15,1.07,4.67,1.68,7.31,1.68h27.19c3.31,0,6.91-.99,9.89-2.83-.08,.23-.18,.44-.24,.68l-.44,1.72c-1.01,1.2-1.74,2.62-2.08,4.15l-9.39,41.1c-.67,2.72-.01,5.5,1.81,7.63,1.85,2.16,4.66,3.4,7.73,3.4h18.25c5.04,0,9.58-3.39,10.78-8.07l.02-.09,.02-.09,2.12-9.42h17.87c2.57,0,5.06-.39,7.38-1.08l-1.81,7.85c-.62,2.72,.09,5.49,1.95,7.61,1.83,2.09,4.57,3.29,7.51,3.29h19.19c4.2,0,8.1-2.46,9.87-6,.38,.95,.94,1.85,1.67,2.67,1.88,2.12,4.54,3.33,7.31,3.33h21.48c2.52,0,4.9-.76,6.77-2.1,2.71,1.35,5.95,2.1,9.45,2.1h36.76c9.83,0,18.56-5.61,20.32-13.06l7.22-31.45c.28-1.31,.33-2.59,.19-3.84l.76-2.94c.45-1.84,.33-3.65-.3-5.33,1.18,.49,2.48,.77,3.84,.77h14.35c1.01,0,1.96-.16,2.87-.43,.86,.25,1.76,.43,2.69,.43h13.42c2.91,0,5.64-1.3,7.46-3.33,.66,.77,1.29,1.27,1.63,1.51l.14,.1,.15,.09c2.52,1.63,5.12,1.63,5.97,1.63h10.74c4.64,0,8.67-3.08,9.58-7.32l.12-.52c.08,1.72,.69,3.37,1.85,4.74,1.68,1.97,4.24,3.1,7.01,3.1h12.9c4.52,0,8.58-3,9.64-7.14l.02-.08,.02-.08,4.17-18.34h4.06c4.52,0,8.58-3,9.64-7.14l.03-.12,.03-.12,.58-2.7c.17-.76,.18-1.53,.12-2.28,.11-1.82-.53-3.6-1.93-5Zm-6.83,3.2c1.16,0,1.91,.81,1.68,1.76l-.58,2.38c-.29,1-1.51,1.81-2.66,1.81h-9.79l-5.33,20.78c-.29,1-1.45,1.81-2.66,1.81h-12.8c-1.22,0-1.97-.81-1.68-1.81l5.33-20.78h-10.13c-1.22,0-1.97-.81-1.68-1.81l.58-2.38c.23-.95,1.45-1.76,2.66-1.76h37.06Zm-71.47,0c1.27,0,1.97,.38,2.49,1.24l6.49,13.7,3.42-13.17c.23-.95,1.45-1.76,2.61-1.76h10.01c-.07,.21-.17,.4-.22,.62l-.56,2.31c-.58,2.19,.02,4.41,1.66,6.12,.52,.54,1.14,.98,1.81,1.37l-4.24,16.36c-.23,.95-1.33,1.76-2.55,1.76h-10.65c-.64,0-1.27-.05-1.85-.38,0,0-.52-.33-.87-.95l-6.66-13.27-3.36,12.84c-.23,.95-1.33,1.76-2.49,1.76h-13.32c-1.16,0-1.91-.81-1.68-1.76l6.49-25.02c.23-.95,1.39-1.76,2.55-1.76h10.94Zm-27.63,0c1.22,0,2.14,.86,2.26,1.76l1.65,11.48-3.2,12.32c-.25,1.02-.22,2.02,0,2.97h-11.14c-1.22,0-2.37-.81-2.37-1.76v-3.95h-8.57l-2.14,3.95c-.46,.95-1.97,1.76-3.13,1.76h-14.3c-.98,0-1.45-.67-1.22-1.47,.06-.24,.17-.48,.35-.71l16.21-24.59c.58-.9,2.03-1.76,3.24-1.76h22.35Zm-42.22,77.74h-36.48c-6.32,0-10.7-3.11-9.69-6.92l7.16-27.68c.93-3.81,6.91-6.92,13.23-6.92h36.48c6.32,0,10.61,3.11,9.69,6.92l-7.16,27.68c-1.01,3.81-6.91,6.92-13.23,6.92Zm-76.24-2.35c1.01-4.15-.34-15.84-5.64-15.84l1.35-5.19h3.45c1.68,0,4.46-.14,4.97-2.01l2.02-8.09c.42-1.38-1.94-2.01-3.37-2.01h-6.91l-8.59,32.93c-.34,1.31-1.94,2.56-3.62,2.56h-19.04c-1.69,0-2.78-1.25-2.44-2.56l9.44-36.39c.34-1.31,2.02-2.56,3.71-2.56h46.33c4.64,0,8.12,1.69,9.05,4.48-.17,.42-.32,.86-.42,1.29l-3.44,13.31c-2.35,2.7-6.54,4.37-11.04,4.37-.07,0-.14,0-.21,0h-1.1c3.2,.48,4.97,1.31,6.66,2.7,1.06,.93,2.05,2.4,2.84,3.95l-.85,3.28c-.74,2.8-.13,5.6,1.73,7.99-.38,.09-.78,.14-1.19,.14h-21.31c-1.26,0-2.61-1.31-2.36-2.35Zm-50.3-13.22h-23.5l-3.29,12.94c-.42,1.45-2.11,2.63-3.79,2.63h-18.11c-1.77,0-2.95-1.18-2.53-2.63l9.35-36.32c.34-1.38,2.11-2.56,3.88-2.56h44.73c3.42,0,6.23,.92,7.96,2.35l-5.51,21.25c-2.48,1.43-5.79,2.34-9.19,2.34Zm-43.23-31.05c0,.14,0,.27,0,.41-.11,.05-.22,.11-.33,.16,.1-.2,.23-.37,.32-.57Zm131.72-29.36c.23-.9,1.39-1.76,2.55-1.76h31.85c4.23,0,7.06,2.04,6.25,5.18l-1.51,5.75c-.8,3.1-4.61,5.18-8.78,5.18-.05,0-.09,0-.14,0h-.75c2.2,.33,3.42,.9,4.57,1.85,.37,.32,.72,.75,1.05,1.22l-2.83,4.29c-.52,.74-.89,1.53-1.1,2.34-.25,.92-.24,1.83-.08,2.71h-9.96c-.87,0-1.8-.9-1.62-1.62,.69-2.85-.23-10.89-3.88-10.89l.93-3.57h2.37c1.16,0,3.07-.1,3.42-1.38l1.39-5.56c.29-.95-1.33-1.38-2.32-1.38h-4.75l-5.91,22.64c-.23,.9-1.33,1.76-2.49,1.76h-13.09c-1.16,0-1.91-.86-1.68-1.76l6.49-25.02Zm-28.73-1.76c1.16,0,1.91,.81,1.68,1.76l-4.98,19.26c-.46,1.85,.75,3.33,2.78,3.33s4-1.47,4.46-3.33l4.98-19.26c.23-.95,1.45-1.76,2.66-1.76h10.41c-.07,.19-.16,.37-.21,.56l-6.48,25c-.19,.76-.19,1.52-.1,2.26-1.3,.44-2.76,.71-4.25,.71h-25.07c-4.34,0-7.35-2.14-6.66-4.76l5.67-22.02c.23-.95,1.45-1.76,2.66-1.76h12.45Zm-54.85,1.76c.58-.9,2.03-1.76,3.24-1.76h22.35c1.22,0,2.14,.86,2.26,1.76l1.66,11.53-2.39,9.29c-.54,2.02-.21,4.12,.89,5.96h-12.83c-1.22,0-2.37-.81-2.37-1.76v-3.95h-8.57l-2.14,3.95c-.46,.95-1.97,1.76-3.13,1.76h-14.3c-.98,0-1.45-.67-1.22-1.47,.06-.24,.17-.48,.35-.71l16.21-24.59Zm-6.91-1.76l-3.92,5.94h-5.27l-3.35,13.09-2.94,4.46c-.52,.74-.89,1.53-1.1,2.34-.24,.89-.24,1.77-.09,2.63-.17,.03-.34,.08-.51,.08h-12.8c-1.22,0-1.97-.81-1.68-1.81l5.33-20.78h-10.13c-1.22,0-1.97-.81-1.68-1.81l.58-2.38c.23-.95,1.45-1.76,2.66-1.76h34.9Zm-46.55,0c.71,0,1.45,.09,2.16,.24-.04,.13-.1,.25-.14,.38l-.56,2.31c-.58,2.19,.02,4.41,1.66,6.12,.28,.29,.61,.52,.93,.76-.36,.16-.75,.27-1.16,.27h-13.38c-1.85,0-1.74-1.33-1.45-2.57,.46-1.71-.46-3.38-2.61-3.38s-3.94,1.66-4.4,3.38c-.64,2.52-.06,4.38,2.95,4.76l10.65,1.28c5.15,.62,8.98,1.86,7.64,7.04l-.81,3.19c-.81,3.14-5.56,4.76-8.86,4.76h-26.98c-3.3,0-7.18-1.62-6.37-4.76l.93-3.57c.23-.95,1.39-1.76,2.55-1.76h13.43c1.85,0,1.74,1.33,1.39,2.57-.46,1.71,.52,3.33,2.61,3.33s3.94-1.62,4.4-3.33c.29-1.19,.35-2.14-.41-3.09-.58-.71-1.45-1.52-2.61-1.66l-10.6-1.28c-4.69-.57-8.86-2.33-7.59-7.04l.81-3.19c.81-3.14,5.5-4.76,8.8-4.76h26.98Zm-40.91,0c-.84,1.05-1.48,2.23-1.82,3.55l-.61,2.4h-14.17l-1.45,5.8h10.71c1.16,0,1.85,.81,1.56,1.81l-.35,1.52c-.29,.95-1.39,1.76-2.55,1.76h-10.71l-1.51,5.75h14.14c-.53,2.08-.24,4.11,.81,5.91-.06,0-.12,.03-.19,.03h-31.79c-1.16,0-1.91-.81-1.68-1.76l6.49-25.02c.23-.95,1.39-1.76,2.55-1.76h30.56Zm-44.58,0c1.78,0,3.29,.38,4.41,1.04l-3.65,14.08c-1.41,.64-3.06,1.01-4.79,1.01-.05,0-.09,0-.14,0h-.75c2.2,.33,3.42,.9,4.57,1.85,.1,.09,.19,.2,.29,.3l-1.89,7.29c-.25,1.02-.22,2.02,0,2.97h-11.32c-.87,0-1.8-.9-1.62-1.62,.69-2.85-.23-10.89-3.88-10.89l.93-3.57h2.37c1.16,0,3.07-.1,3.42-1.38l1.39-5.56c.29-.95-1.33-1.38-2.32-1.38h-4.75l-5.91,22.64c-.23,.9-1.33,1.76-2.49,1.76H12.37c-1.16,0-1.91-.86-1.68-1.76l6.49-25.02c.23-.9,1.39-1.76,2.55-1.76h31.85Z"/><path class="cls-3" d="M173.41,270.37h-6.07l-3.88,14.67h6.07c2.53,0,4.89-.9,5.22-2.01l2.7-10.59c.34-1.18-1.52-2.08-4.04-2.08Z"/><path class="cls-3" d="M303.06,270.37c-2.86,0-5.81,2.21-6.57,4.91l-5.05,19.65c-.67,2.7,1.1,4.84,3.96,4.84s5.9-2.14,6.57-4.84l5.05-19.65c.76-2.7-1.01-4.91-3.96-4.91Z"/></g></g></svg>