<?xml version="1.0" encoding="UTF-8"?><svg id="_图层_1" xmlns="http://www.w3.org/2000/svg" viewBox="0 0 453.44 128.24"><defs><style>.cls-1{fill:#fff;}.cls-2{fill:none;}.cls-3{fill:#003d9e;}</style></defs><g><path class="cls-2" d="M8.1,75.52c-.03-.15-.06-.3-.09-.45,.03,.15,.06,.3,.09,.45Z"/><path class="cls-2" d="M29.6,32.77c-.75,.83-1.48,1.68-2.17,2.57,.69-.88,1.42-1.74,2.17-2.57Z"/><path class="cls-2" d="M31.15,31.15c-.53,.53-1.04,1.07-1.55,1.62,.5-.55,1.02-1.09,1.55-1.62Z"/><path class="cls-2" d="M18.49,73.73c.11,.53,.24,1.06,.37,1.59-.13-.53-.26-1.06-.37-1.59Z"/><path class="cls-2" d="M9.01,79.25c-.05-.2-.11-.39-.16-.59,.05,.2,.11,.39,.16,.59Z"/><path class="cls-2" d="M32.77,29.6c-.55,.5-1.09,1.02-1.62,1.55,.53-.53,1.07-1.04,1.62-1.55Z"/><path class="cls-2" d="M35.33,27.43c-.59,.46-1.16,.94-1.73,1.43,.56-.49,1.14-.97,1.73-1.43Z"/><path class="cls-2" d="M7.54,55.79c.15-1.03,.33-2.06,.54-3.08-.21,1.02-.39,2.05-.54,3.08Z"/><path class="cls-2" d="M7.61,72.84c-.26-1.65-.44-3.31-.56-4.97,.11,1.66,.3,3.32,.56,4.97Z"/><path class="cls-2" d="M19.92,49.17c-.37,1.08-.7,2.18-.98,3.3,.29-1.12,.62-2.22,.98-3.3Z"/><path class="cls-2" d="M40.92,23.66c-.65,.37-1.29,.77-1.92,1.17,.63-.4,1.27-.8,1.92-1.17Z"/><path class="cls-2" d="M17.82,69.73c.07,.53,.14,1.07,.23,1.6-.09-.53-.16-1.07-.23-1.6Z"/><path class="cls-2" d="M16.1,93.8c.11,0,.21-.01,.31-.04-.1,.02-.21,.04-.31,.04h0Z"/><path class="cls-2" d="M27.34,70.66c.19-.05,.38-.08,.57-.11-.19,.03-.38,.06-.57,.11Z"/><path class="cls-2" d="M23.66,40.92c-.37,.65-.73,1.31-1.08,1.98,.34-.67,.7-1.33,1.08-1.98Z"/><path class="cls-2" d="M18.18,72.13c.09,.53,.2,1.07,.31,1.6-.11-.53-.22-1.07-.31-1.6Z"/><path class="cls-2" d="M15.42,93.64c-.1-.05-.19-.11-.28-.19,.09,.07,.18,.14,.28,.19Z"/><path class="cls-2" d="M21.14,45.98c-.3,.7-.57,1.4-.84,2.12,.26-.71,.54-1.42,.84-2.12Z"/><path class="cls-2" d="M15.15,93.45s-.08-.08-.12-.12c.04,.04,.08,.08,.12,.12Z"/><path class="cls-2" d="M15.74,93.76c-.11-.03-.22-.07-.31-.12,.1,.05,.2,.09,.31,.12Z"/><path class="cls-2" d="M26.75,36.22c-.45,.6-.88,1.21-1.3,1.83,.42-.62,.85-1.23,1.3-1.83Z"/><path class="cls-2" d="M52.47,18.94c-.74,.19-1.48,.4-2.21,.63,.73-.23,1.47-.44,2.21-.63Z"/><path class="cls-2" d="M47.15,118.73c-.86-.27-1.73-.57-2.58-.89,.86,.32,1.72,.61,2.58,.89Z"/><path class="cls-2" d="M47.35,100.11s0,0,.01,0c.02-.01,.04-.03,.07-.04-.03,0-.05,.02-.08,.03Z"/><path class="cls-2" d="M34.86,111.6c.06-.19,.16-.37,.29-.53-.13,.16-.22,.34-.29,.53Z"/><path class="cls-2" d="M49.75,119.48c2.17,.57,4.35,1.01,6.54,1.3,.33,.04,.65,.08,.98,.12-.33-.04-.65-.08-.98-.12-2.19-.29-4.37-.73-6.54-1.3Z"/><path class="cls-2" d="M60.21,121.18c-.65-.04-1.31-.1-1.96-.16,.65,.07,1.31,.12,1.96,.16Z"/><path class="cls-2" d="M47.94,107.89c-1.78-.67-3.56-1.48-5.36-2.41-.07-.03-.14-.07-.21-.09,.07,.03,.14,.06,.21,.09,1.79,.93,3.58,1.73,5.36,2.41Z"/><path class="cls-2" d="M52.48,109.34c.5,.13,1,.25,1.49,.36-.5-.11-.99-.23-1.49-.36Z"/><path class="cls-2" d="M14.52,92.53c-1.54-2.67-2.9-5.61-4.04-8.72-.15-.4-.29-.8-.43-1.2,.14,.4,.28,.8,.43,1.2,1.15,3.11,2.51,6.05,4.04,8.72l.3,.53s.06,.1,.09,.14c-.03-.05-.06-.09-.09-.14l-.3-.53Z"/><path class="cls-2" d="M11.7,41.3c-.91,2.07-1.69,4.18-2.34,6.34-.2,.67-.39,1.34-.57,2.01,.18-.67,.37-1.35,.57-2.01,.65-2.16,1.43-4.28,2.34-6.34Z"/><path class="cls-2" d="M49.46,108.43c1.01,.34,2.02,.64,3.02,.9-1-.26-2-.56-3.02-.9Z"/><path class="cls-2" d="M29.13,82.05l-10.09,9.47,10.09-9.47,9.46,10.11c.07,.07,.14,.14,.21,.21-.07-.07-.14-.14-.21-.21l-9.46-10.11Z"/><path class="cls-3" d="M126.7,50.21c-3.11-14.01-11-26.75-22.2-35.86C93.12,5.1,78.78,0,64.12,0S36.74,4.47,25.54,12.94C14.72,21.11,6.62,32.73,2.72,45.64c-1.81,6-2.72,12.21-2.72,18.48,0,7.5,1.34,14.93,3.97,22.09,1.28,3.48,2.81,6.77,4.54,9.78l.3,.52c1.29,2.25,3.6,3.8,6.17,4.15,.37,.05,.75,.07,1.12,.07,2.24,0,4.35-.87,5.93-2.45l1.2-1.2,5.57-5.23,4.72,5.04c1.05,1.12,2.28,2.03,3.63,2.7-.61,.37-1.18,.81-1.69,1.33l-5.09,5.09c-1.91,1.91-2.83,4.65-2.47,7.33,.37,2.68,1.99,5.07,4.35,6.4,7.46,4.2,15.23,6.86,23.11,7.91,2.91,.39,5.85,.59,8.75,.59,35.36,0,64.12-28.76,64.12-64.12,0-4.64-.52-9.32-1.54-13.91Zm-5.42,15.38c-.01,.49-.03,.98-.06,1.46-.02,.49-.06,.97-.09,1.46-.02,.24-.04,.48-.06,.72-.09,.96-.2,1.92-.33,2.87-.17,1.19-.37,2.36-.61,3.52-.1,.46-.2,.93-.3,1.39-.43,1.84-.94,3.65-1.54,5.42-.15,.44-.31,.88-.47,1.32s-.33,.87-.5,1.31c-.26,.65-.52,1.29-.8,1.93-.09,.21-.19,.42-.28,.64-.29,.63-.58,1.26-.89,1.88-.21,.41-.42,.82-.63,1.23-.22,.41-.44,.81-.66,1.22-.23,.4-.45,.8-.69,1.2-.23,.4-.47,.79-.72,1.18-.24,.39-.49,.78-.74,1.16-.63,.96-1.29,1.9-1.98,2.82-.27,.37-.55,.73-.84,1.09-.42,.54-.86,1.07-1.3,1.6-.15,.17-.3,.35-.45,.52-.3,.35-.6,.69-.91,1.03-.31,.34-.62,.67-.94,1-.95,.99-1.93,1.95-2.95,2.88-.34,.31-.68,.61-1.03,.91-.52,.45-1.05,.89-1.58,1.32-.71,.57-1.44,1.13-2.18,1.67-.37,.27-.74,.54-1.12,.8-.38,.26-.76,.52-1.14,.77s-.77,.5-1.16,.74c-.39,.24-.78,.48-1.18,.72-1.58,.94-3.22,1.8-4.9,2.59-.42,.2-.84,.39-1.27,.57-1.7,.74-3.44,1.41-5.22,1.99-.45,.14-.89,.28-1.34,.42-5.17,1.54-10.65,2.37-16.31,2.37-1.3,0-2.6-.04-3.91-.13-.65-.04-1.31-.1-1.96-.16-.33-.03-.65-.07-.98-.11-.33-.04-.65-.08-.98-.12-2.19-.29-4.37-.73-6.54-1.3-.87-.23-1.73-.48-2.6-.75-.86-.27-1.73-.57-2.58-.89-3.01-1.11-5.98-2.49-8.9-4.14-.48-.27-.81-.75-.88-1.3-.04-.27,0-.55,.08-.8,.06-.19,.16-.37,.29-.53,.04-.05,.09-.1,.14-.15l5.09-5.09c.13-.13,.29-.25,.45-.33,.11-.06,.22-.11,.34-.14,.18-.05,.36-.08,.55-.08,.15,0,.3,.02,.45,.05,.07,.02,.15,.04,.22,.07,.07,.03,.14,.06,.21,.09,1.79,.93,3.58,1.73,5.36,2.41,.51,.19,1.01,.38,1.52,.55,1.01,.34,2.02,.64,3.02,.9,.5,.13,1,.25,1.49,.36,.25,.05,.5,.11,.74,.15,3.13,.61,6.29,.92,9.41,.92,12.82,0,25.22-5.38,34.01-14.76,8.92-9.5,13.37-21.91,12.54-34.94-1.48-23.18-20.06-41.88-43.22-43.5-1.11-.08-2.23-.12-3.34-.12-4.02,0-7.92,.51-11.65,1.47-.74,.19-1.48,.4-2.21,.63-3.28,1.02-6.41,2.4-9.35,4.09-.65,.37-1.29,.77-1.92,1.17-1.26,.81-2.48,1.68-3.66,2.6-.59,.46-1.16,.94-1.73,1.43-.28,.24-.56,.49-.84,.74-.55,.5-1.09,1.02-1.62,1.55-.53,.53-1.04,1.07-1.55,1.62-.75,.83-1.48,1.68-2.17,2.57-.23,.29-.46,.59-.68,.89-.45,.6-.88,1.21-1.3,1.83-.63,.93-1.23,1.89-1.79,2.86-.37,.65-.73,1.31-1.08,1.98-.52,1.01-1,2.03-1.44,3.08-.3,.7-.57,1.4-.84,2.12-.13,.36-.26,.72-.38,1.08-.37,1.08-.7,2.18-.98,3.3-.96,3.72-1.47,7.63-1.47,11.65,0,1.87,.12,3.74,.35,5.61,.07,.53,.14,1.07,.23,1.6,.04,.27,.09,.53,.14,.8,.09,.53,.2,1.07,.31,1.6,.11,.53,.24,1.06,.37,1.59,.13,.53,.27,1.06,.43,1.59,.04,.13,.08,.25,.12,.37l5.13-5.11c.69-.69,1.59-1.17,2.52-1.44,.09-.03,.19-.05,.28-.07,.19-.05,.38-.08,.57-.11,.28-.04,.56-.06,.84-.07,1.57,.03,3.08,.7,4.15,1.84l9.94,10.62,15.81-17.09c1.08-2.21,1.89-5.25,.96-8.74,0,0-1.22-2.12,3.27-6.61,0,0,13.34-15.12,17.8-11.8l-10.88,11.55s-1.03,1.88,.07,3.12c1.1,1.24,3.03,.42,3.03,.42,0,0,10.96-12.04,14.11-10.74,1.43,3.09-10.13,14.56-10.13,14.56,0,0-.74,1.97,.55,3.01,1.29,1.05,3.12-.07,3.12-.07l11.07-11.36c3.51,4.32-11.02,18.29-11.02,18.29-4.29,4.68-6.46,3.55-6.46,3.55-3.6-.79-6.66,.2-8.82,1.41l-18.21,19.68c-.27,.3-.58,.56-.9,.79-.97,.69-2.15,1.07-3.36,1.08h0c-.4,0-.8-.04-1.19-.12-.19-.04-.39-.09-.57-.15-.19-.06-.37-.13-.55-.21-.18-.08-.36-.17-.53-.26-.43-.24-.83-.54-1.19-.89-.07-.07-.14-.14-.21-.21l-9.46-10.11-10.09,9.47-.62,.58-1.28,1.27c-.14,.14-.3,.25-.48,.32-.08,.03-.16,.06-.25,.08-.1,.02-.21,.04-.31,.04h0c-.07,0-.13,0-.2-.01-.06,0-.11-.02-.17-.03-.11-.03-.22-.07-.31-.12-.1-.05-.19-.11-.28-.19-.04-.04-.08-.07-.12-.12-.04-.04-.07-.08-.11-.13-.03-.05-.06-.09-.09-.14l-.3-.53c-1.54-2.67-2.9-5.61-4.04-8.72-.15-.4-.29-.8-.43-1.2-.14-.4-.27-.8-.4-1.21-.23-.72-.44-1.44-.64-2.16-.05-.2-.11-.39-.16-.59-.28-1.04-.53-2.09-.74-3.14-.03-.15-.06-.3-.09-.45-.15-.74-.28-1.49-.4-2.23-.26-1.65-.44-3.31-.56-4.97-.08-1.25-.13-2.5-.13-3.75,0-2.79,.2-5.57,.61-8.33,.15-1.03,.33-2.06,.54-3.08,.21-1.02,.45-2.04,.71-3.05,.18-.67,.37-1.35,.57-2.01,.65-2.16,1.43-4.28,2.34-6.34,.15-.34,.31-.69,.46-1.03,.63-1.37,1.32-2.71,2.05-4.02,1.47-2.62,3.16-5.14,5.02-7.5,1.4-1.78,2.9-3.47,4.5-5.07,.8-.8,1.62-1.58,2.47-2.33,.28-.25,.57-.5,.85-.74,.57-.49,1.16-.97,1.75-1.44,.3-.23,.6-.47,.9-.69,9.99-7.55,21.88-11.54,34.4-11.54s25.86,4.54,36.01,12.8c10,8.13,17.04,19.49,19.81,31.99,.91,4.09,1.37,8.27,1.37,12.4,0,.49,0,.98-.02,1.47ZM47.35,100.11s.05-.02,.08-.03c-.02,.01-.04,.03-.07,.04,0,0,0,0-.01,0Z"/><path class="cls-1" d="M96.64,111.14c-.38,.26-.76,.52-1.14,.77,.38-.25,.76-.51,1.14-.77Z"/><path class="cls-1" d="M97.76,110.34c-.37,.27-.74,.54-1.12,.8,.38-.26,.75-.53,1.12-.8Z"/><path class="cls-1" d="M101.52,107.34c-.52,.45-1.05,.89-1.58,1.32,.54-.43,1.06-.87,1.58-1.32Z"/><path class="cls-1" d="M107.34,101.52c-.3,.35-.6,.69-.91,1.03,.31-.34,.61-.68,.91-1.03Z"/><path class="cls-1" d="M109.09,99.4c-.42,.54-.86,1.07-1.3,1.6,.44-.52,.88-1.06,1.3-1.6Z"/><path class="cls-1" d="M102.55,106.43c-.34,.31-.68,.61-1.03,.91,.35-.3,.69-.6,1.03-.91Z"/><path class="cls-1" d="M106.43,102.55c-.31,.34-.62,.67-.94,1,.32-.33,.63-.67,.94-1Z"/><path class="cls-1" d="M109.93,98.31c-.27,.37-.55,.73-.84,1.09,.28-.36,.56-.72,.84-1.09Z"/><path class="cls-1" d="M94.34,112.65c-.39,.24-.78,.48-1.18,.72,.4-.23,.79-.47,1.18-.72Z"/><path class="cls-1" d="M111.91,95.5c-.63,.96-1.29,1.9-1.98,2.82,.69-.92,1.35-1.86,1.98-2.82Z"/><path class="cls-1" d="M27.07,20.6c.57-.49,1.16-.97,1.75-1.44-.59,.47-1.18,.95-1.75,1.44Z"/><path class="cls-1" d="M23.74,23.68c.8-.8,1.62-1.58,2.47-2.33-.85,.75-1.67,1.53-2.47,2.33Z"/><path class="cls-1" d="M17.14,93.37c-.14,.14-.3,.25-.48,.32,.18-.07,.34-.18,.48-.32l1.28-1.27,.62-.58-.62,.58-1.28,1.27Z"/><path class="cls-1" d="M19.24,28.75c1.4-1.78,2.9-3.47,4.5-5.07-1.6,1.6-3.1,3.3-4.5,5.07Z"/><path class="cls-1" d="M14.22,36.25c1.47-2.62,3.16-5.14,5.02-7.5-1.87,2.37-3.55,4.88-5.02,7.5Z"/><path class="cls-1" d="M88.26,115.96c-.42,.2-.84,.39-1.27,.57,.42-.19,.85-.38,1.27-.57Z"/><path class="cls-1" d="M42.16,105.32c-.15-.04-.3-.05-.45-.05-.19,0-.38,.03-.55,.08,.18-.05,.36-.08,.55-.08,.15,0,.3,.02,.45,.05Z"/><path class="cls-1" d="M12.17,40.27c.63-1.37,1.32-2.71,2.05-4.02-.74,1.31-1.42,2.65-2.05,4.02Z"/><path class="cls-1" d="M46.21,92.93c.32-.23,.63-.49,.9-.79-.27,.3-.58,.56-.9,.79Z"/><path class="cls-1" d="M27.06,70.73c-.93,.27-1.83,.75-2.52,1.44l-5.13,5.11,5.13-5.11c.69-.69,1.59-1.17,2.52-1.44Z"/><path class="cls-1" d="M40.53,93.52c-.18-.08-.36-.17-.53-.26,.17,.1,.35,.18,.53,.26Z"/><path class="cls-1" d="M16.66,93.69c-.08,.03-.16,.06-.25,.08,.08-.02,.17-.04,.25-.08Z"/><path class="cls-1" d="M41.65,93.88c-.19-.04-.39-.09-.57-.15,.19,.06,.38,.11,.57,.15Z"/><path class="cls-1" d="M40.82,105.49c.11-.06,.22-.11,.34-.14-.12,.04-.23,.08-.34,.14Z"/><path class="cls-1" d="M8.01,75.07c-.15-.74-.28-1.49-.4-2.23,.12,.75,.25,1.49,.4,2.23Z"/><path class="cls-1" d="M81.78,118.52c-.45,.14-.89,.28-1.34,.42,.45-.13,.9-.27,1.34-.42Z"/><path class="cls-1" d="M8.85,78.66c-.28-1.04-.53-2.09-.74-3.14,.22,1.05,.47,2.1,.74,3.14Z"/><path class="cls-1" d="M16.1,93.8h0c-.07,0-.13,0-.2-.01,.07,0,.13,.01,.2,.01Z"/><path class="cls-1" d="M9.65,81.41c-.23-.72-.44-1.44-.64-2.16,.2,.72,.41,1.44,.64,2.16Z"/><path class="cls-1" d="M15.02,93.33s-.07-.08-.11-.13c.03,.05,.07,.09,.11,.13Z"/><path class="cls-1" d="M119.94,51.72c-2.78-12.5-9.81-23.86-19.81-31.99-10.15-8.25-22.94-12.8-36.01-12.8s-24.41,3.99-34.4,11.54c-.3,.23-.6,.46-.9,.69-.59,.47-1.18,.95-1.75,1.44-.29,.25-.57,.49-.85,.74-.85,.75-1.67,1.53-2.47,2.33-1.6,1.6-3.1,3.3-4.5,5.07-1.87,2.37-3.55,4.88-5.02,7.5-.74,1.31-1.42,2.65-2.05,4.02-.16,.34-.31,.68-.46,1.03-.91,2.07-1.69,4.18-2.34,6.34-.2,.67-.39,1.34-.57,2.01-.26,1.01-.5,2.03-.71,3.05-.21,1.02-.39,2.05-.54,3.08-.41,2.75-.61,5.53-.61,8.33,0,1.25,.04,2.5,.13,3.75,.11,1.66,.3,3.32,.56,4.97,.12,.75,.25,1.49,.4,2.23,.03,.15,.06,.3,.09,.45,.22,1.05,.47,2.1,.74,3.14,.05,.2,.11,.39,.16,.59,.2,.72,.41,1.44,.64,2.16,.13,.4,.26,.8,.4,1.21,.14,.4,.28,.8,.43,1.2,1.15,3.11,2.51,6.05,4.04,8.72l.3,.53s.06,.1,.09,.14c.03,.05,.07,.09,.11,.13,.04,.04,.08,.08,.12,.12,.09,.07,.18,.14,.28,.19s.2,.09,.31,.12c.05,.01,.11,.02,.17,.03,.07,0,.13,.01,.2,.01,.11,0,.21-.01,.31-.04,.08-.02,.17-.04,.25-.08,.18-.07,.34-.18,.48-.32l1.28-1.27,.62-.58,10.09-9.47,9.46,10.11c.07,.07,.14,.14,.21,.21,.36,.35,.76,.64,1.19,.89,.17,.1,.35,.18,.53,.26,.18,.08,.37,.15,.55,.21,.19,.06,.38,.11,.57,.15,.39,.08,.79,.12,1.19,.12h0c1.21,0,2.38-.39,3.36-1.08,.32-.23,.63-.49,.9-.79l17.82-19.25h0l.39-.42c2.17-1.21,5.22-2.2,8.82-1.41,0,0,2.17,1.12,6.46-3.55,0,0,14.53-13.97,11.02-18.29l-11.07,11.36s-1.83,1.11-3.12,.07c-1.29-1.05-.55-3.01-.55-3.01,0,0,11.56-11.47,10.13-14.56-3.15-1.3-14.11,10.74-14.11,10.74,0,0-1.93,.82-3.03-.42-1.1-1.24-.07-3.12-.07-3.12l10.88-11.55c-4.46-3.32-17.8,11.8-17.8,11.8-4.49,4.49-3.27,6.61-3.27,6.61,.93,3.49,.12,6.53-.96,8.74h0s-15.81,17.09-15.81,17.09l-9.94-10.62c-1.07-1.14-2.58-1.82-4.15-1.84-.28,0-.56,.03-.84,.07-.19,.03-.38,.06-.57,.11-.09,.02-.19,.05-.28,.07-.93,.27-1.83,.75-2.52,1.44l-5.13,5.11c-.04-.13-.08-.25-.12-.37-.15-.53-.29-1.06-.43-1.59-.13-.53-.26-1.06-.37-1.59-.11-.53-.22-1.07-.31-1.6-.05-.27-.09-.53-.14-.8-.09-.53-.16-1.07-.23-1.6-.23-1.87-.35-3.74-.35-5.61,0-4.02,.51-7.92,1.47-11.65,.29-1.12,.62-2.22,.98-3.3,.12-.36,.25-.72,.38-1.08,.26-.71,.54-1.42,.84-2.12,.44-1.05,.92-2.07,1.44-3.08,.34-.67,.7-1.33,1.08-1.98,.56-.98,1.16-1.93,1.79-2.86,.42-.62,.85-1.23,1.3-1.83,.22-.3,.45-.6,.68-.89,.69-.88,1.42-1.74,2.17-2.57,.5-.55,1.02-1.09,1.55-1.62,.53-.53,1.07-1.04,1.62-1.55,.28-.25,.56-.5,.84-.74,.56-.49,1.14-.97,1.73-1.43,1.18-.92,2.4-1.79,3.66-2.6,.63-.4,1.27-.8,1.92-1.17,2.93-1.69,6.06-3.07,9.35-4.09,.73-.23,1.47-.44,2.21-.63,3.72-.96,7.63-1.47,11.65-1.47,1.1,0,2.23,.04,3.34,.12,23.16,1.62,41.74,20.32,43.22,43.5,.83,13.03-3.62,25.43-12.54,34.94-8.8,9.38-21.2,14.76-34.01,14.76-3.12,0-6.28-.31-9.41-.92-.25-.05-.49-.1-.74-.15-.5-.11-.99-.23-1.49-.36-1-.26-2-.56-3.02-.9-.51-.17-1.01-.35-1.52-.55-1.78-.67-3.56-1.48-5.36-2.41-.07-.03-.14-.07-.21-.09-.07-.03-.14-.05-.22-.07-.15-.04-.3-.05-.45-.05-.19,0-.38,.03-.55,.08-.12,.04-.23,.08-.34,.14-.16,.09-.31,.2-.45,.33l-5.09,5.09s-.09,.1-.14,.15c-.13,.16-.22,.34-.29,.53-.09,.26-.11,.53-.08,.8,.07,.54,.4,1.03,.88,1.3,2.92,1.65,5.9,3.03,8.9,4.14,.86,.32,1.72,.61,2.58,.89,.86,.27,1.73,.53,2.6,.75,2.17,.57,4.35,1.01,6.54,1.3,.33,.04,.65,.08,.98,.12,.33,.04,.65,.07,.98,.11,.65,.07,1.31,.12,1.96,.16,1.31,.09,2.61,.13,3.91,.13,5.67,0,11.14-.83,16.31-2.37,.45-.13,.9-.27,1.34-.42,1.78-.58,3.52-1.24,5.22-1.99,.42-.19,.85-.38,1.27-.57,1.68-.78,3.31-1.65,4.9-2.59,.4-.23,.79-.47,1.18-.72,.39-.24,.78-.49,1.16-.74s.76-.51,1.14-.77c.38-.26,.75-.53,1.12-.8,.74-.54,1.47-1.1,2.18-1.67,.54-.43,1.06-.87,1.58-1.32,.35-.3,.69-.6,1.03-.91,1.02-.92,2-1.88,2.95-2.88,.32-.33,.63-.67,.94-1,.31-.34,.61-.68,.91-1.03,.15-.17,.3-.35,.45-.52,.44-.52,.88-1.06,1.3-1.6,.28-.36,.56-.72,.84-1.09,.69-.92,1.35-1.86,1.98-2.82,.25-.38,.5-.77,.74-1.16,.24-.39,.48-.78,.72-1.18,.23-.4,.46-.8,.69-1.2,.23-.4,.45-.81,.66-1.22,.22-.41,.43-.82,.63-1.23,.31-.62,.61-1.25,.89-1.88,.1-.21,.19-.42,.28-.64,.28-.64,.55-1.28,.8-1.93,.17-.43,.34-.87,.5-1.31s.32-.88,.47-1.32c.6-1.77,1.12-3.58,1.54-5.42,.11-.46,.21-.92,.3-1.39,.24-1.16,.44-2.34,.61-3.52,.13-.95,.24-1.91,.33-2.87,.02-.24,.04-.48,.06-.72,.04-.48,.07-.97,.09-1.46,.02-.49,.04-.97,.06-1.46,.01-.49,.02-.98,.02-1.47,0-4.14-.46-8.31-1.37-12.4Z"/></g><g><path class="cls-2" d="M274.1,102.41c-.19,0-.39,0-.58-.01,.19,0,.38,.01,.58,.01Z"/><path class="cls-1" d="M160.32,53.85c-1.53,0-3.06,1.24-3.36,2.7l-8.1,38.29c-.36,1.53,.66,2.77,2.19,2.77h15.68c1.46,0,2.92-1.24,3.28-2.77l2.84-13.64h20.35c5.47,0,10.65-3.28,11.52-7.29l2.7-12.76c.8-4.01-2.92-7.29-8.39-7.29h-38.73Zm25.82,8.53l-2.33,11.16c-.29,1.17-2.33,2.12-4.52,2.12h-5.25l3.36-15.46h5.25c2.19,0,3.79,.95,3.5,2.19Z"/><path class="cls-1" d="M216.85,53.85c-1.46,0-2.92,1.31-3.21,2.7l-8.17,38.36c-.29,1.39,.66,2.7,2.12,2.7h16.48c1.46,0,2.84-1.31,3.14-2.7l7.44-34.72h5.98c1.24,0,3.28,.66,2.92,2.12l-1.75,8.53c-.44,1.97-2.84,2.11-4.3,2.11h-2.99l-1.17,5.47c4.59,0,5.76,12.33,4.89,16.7-.22,1.09,.95,2.48,2.04,2.48h18.45c1.53,0,2.99-.95,2.84-2.33,0-.01,0-.03,0-.04-.56-1.33-.82-2.76-.75-4.22-.37-1.43-.86-2.99-1.43-4.49-.73-1.97-1.75-3.94-2.84-5.11-1.46-1.46-2.99-2.33-5.76-2.84h.95c.06,0,.12,0,.18,0,5.25,0,10.04-3.19,11.05-7.95l1.9-8.83c1.02-4.81-2.55-7.95-7.88-7.95h-40.11Z"/><path class="cls-1" d="M283.36,53.85c-5.47,0-10.65,3.28-11.45,7.29l-6.2,29.17c-.88,4.01,2.92,7.29,8.39,7.29h31.58c5.47,0,10.58-3.28,11.45-7.29l6.2-29.17c.8-4.01-2.92-7.29-8.39-7.29h-31.58Zm17.87,11.52l-4.38,20.71c-.58,2.84-3.14,5.11-5.69,5.11s-4.01-2.26-3.43-5.11l4.38-20.71c.66-2.84,3.21-5.18,5.69-5.18s4.08,2.33,3.43,5.18Z"/><g><path class="cls-3" d="M182.64,60.2h-5.25l-3.36,15.46h5.25c2.19,0,4.23-.95,4.52-2.12l2.33-11.16c.29-1.24-1.31-2.19-3.5-2.19Z"/><path class="cls-3" d="M328.02,62.14v-.03s.01-.03,.01-.03c.6-3.01-.14-5.99-2.1-8.38-2.42-2.96-6.43-4.65-10.99-4.65h-31.58c-3.55,0-7.12,1.03-10.05,2.89-1.8,1.15-3.26,2.54-4.33,4.1-.38-.9-.88-1.75-1.51-2.53-2.33-2.88-6.07-4.47-10.52-4.47h-40.11c-2.89,0-5.67,1.79-7.08,4.34-2.44-2.76-6.32-4.34-10.71-4.34h-38.73c-1.83,0-3.66,.66-5.15,1.86-1.5,1.21-2.53,2.86-2.9,4.66l-8.08,38.23c-.3,1.34-.23,2.69,.19,3.92l-.19,.88c-.49,2.13-.02,4.3,1.29,5.96,1.33,1.68,3.36,2.64,5.57,2.64h15.68c3.65,0,7.07-2.77,7.94-6.45l.02-.07v-.07s2.06-9.82,2.06-9.82h16.45c3.01,0,6.03-.74,8.68-2.1l-1.11,5.23h0s0,.01,0,.01c-.27,1.28-.19,2.58,.22,3.77l-.22,1.02h0s0,.01,0,.01c-.44,2.11,.07,4.27,1.41,5.93,1.32,1.62,3.28,2.55,5.4,2.55h16.48c1.86,0,3.71-.72,5.19-2.04,1.35-1.19,2.28-2.78,2.64-4.46l1.61-7.5c.03,.23,.05,.46,.07,.68-.02,.11-.03,.21-.05,.31-.21,1.03-.14,2.09,.16,3.11-.02,.7-.08,1.28-.16,1.69-.39,1.93,.17,3.97,1.51,5.62,1.35,1.65,3.26,2.6,5.23,2.6h18.45c2.33,0,4.49-.92,5.94-2.53,.1-.11,.19-.22,.28-.34,2.4,1.84,5.61,2.87,9.17,2.87h31.58c3.54,0,7.1-1.03,10.03-2.9,3.24-2.07,5.41-4.97,6.11-8.17h0s0-.03,0-.03l6.2-29.17v-.03s.01-.03,.01-.03c.3-1.5,.27-2.98-.08-4.39l.07-.34Zm-4.69-1l-6.2,29.17c-.88,4.01-5.98,7.29-11.45,7.29h-31.58c-5.47,0-9.26-3.28-8.39-7.29l6.2-29.17c.8-4.01,5.98-7.29,11.45-7.29h31.58c5.47,0,9.19,3.28,8.39,7.29Zm-58.49,.66l-1.9,8.83c-1.01,4.76-5.8,7.95-11.05,7.95-.06,0-.12,0-.18,0h-.95c2.77,.51,4.3,1.39,5.76,2.84,1.09,1.17,2.12,3.14,2.84,5.11,.57,1.51,1.06,3.06,1.43,4.49-.07,1.46,.19,2.89,.75,4.22,0,.01,0,.03,0,.04,.15,1.39-1.31,2.33-2.84,2.33h-18.45c-1.09,0-2.26-1.39-2.04-2.48,.88-4.38-.29-16.7-4.89-16.7l1.17-5.47h2.99c1.46,0,3.87-.15,4.3-2.11l1.75-8.53c.36-1.46-1.68-2.12-2.92-2.12h-5.98l-7.44,34.72c-.29,1.39-1.68,2.7-3.14,2.7h-16.48c-1.46,0-2.41-1.31-2.12-2.7l8.17-38.36c.29-1.39,1.75-2.7,3.21-2.7h40.11c5.32,0,8.9,3.14,7.88,7.95Zm-57.4-.66l-2.7,12.76c-.88,4.01-6.05,7.29-11.52,7.29h-20.35l-2.84,13.64c-.36,1.53-1.82,2.77-3.28,2.77h-15.68c-1.53,0-2.55-1.24-2.19-2.77l8.1-38.29c.29-1.46,1.82-2.7,3.36-2.7h38.73c5.47,0,9.19,3.28,8.39,7.29Zm66.08,41.25c.19,0,.38,.01,.58,.01-.19,0-.39,0-.58-.01Z"/><path class="cls-3" d="M297.81,60.2c-2.48,0-5.03,2.33-5.69,5.18l-4.38,20.71c-.58,2.84,.95,5.11,3.43,5.11s5.11-2.26,5.69-5.11l4.38-20.71c.66-2.84-.88-5.18-3.43-5.18Z"/></g></g><path class="cls-3" d="M453.15,27.75l.1-.5c.36-1.79-.09-3.61-1.22-4.99-1.12-1.37-2.79-2.15-4.58-2.15h-24.39c-.85,0-1.67,.17-2.43,.48-.73-.31-1.54-.48-2.37-.48h-8.73c-1.88,0-3.65,.86-4.87,2.22-1.22-1.44-2.94-2.22-5-2.22h-7.2c-2.56,0-4.92,1.62-5.95,3.93-.32-.79-.8-1.52-1.41-2.13-1.19-1.18-2.75-1.83-4.41-1.83l-14.71,.03c-2.51,0-5.12,1.63-6.35,3.95l-1.12,2.07c-.28-1.03-.76-2-1.45-2.85-1.64-2.02-4.29-3.18-7.27-3.18h-20.96c-.98,0-1.93,.24-2.78,.66-.83-.43-1.77-.66-2.74-.66h-8.19c-1.42,0-2.78,.48-3.89,1.3-1.04-.84-2.35-1.3-3.73-1.3h-8.19c-2.6,0-4.98,1.61-6.02,3.92-.32-.77-.79-1.48-1.39-2.08-1.18-1.18-2.75-1.84-4.4-1.84h-14.71c-1.04,0-2.1,.28-3.07,.77-.88-.5-1.89-.77-2.95-.77h-24.39c-1.33,0-2.6,.42-3.66,1.14-1.41-.73-3.05-1.14-4.76-1.14h-17.76c-1.76,0-3.67,.45-5.37,1.32-1.04-.85-2.35-1.32-3.73-1.32h-20.92c-1.61,0-3.15,.64-4.32,1.69-1.55-1.09-3.52-1.69-5.67-1.69h-20.96c-3,0-5.74,2.24-6.37,5.21l-4.27,20.03h0s0,.01,0,.01c-.22,1.06-.16,2.14,.17,3.13l-.09,.43h0s0,.01,0,.01c-.38,1.78,.06,3.61,1.2,5.01,1.12,1.39,2.8,2.18,4.6,2.18h1.67l.12-.56c.37-1.79,1.39-3.44,2.9-4.66,1.49-1.2,3.32-1.86,5.15-1.86h38.73c4.39,0,8.27,1.58,10.71,4.34,1.41-2.55,4.19-4.34,7.08-4.34h40.11c4.45,0,8.19,1.59,10.52,4.47,.63,.78,1.13,1.62,1.51,2.53,1.06-1.56,2.52-2.96,4.33-4.1,2.93-1.86,6.5-2.89,10.05-2.89h31.58c4.56,0,8.56,1.7,10.99,4.65,.62,.75,1.1,1.57,1.47,2.43h5.28c1.63,0,3.18-.67,4.35-1.76,1.11,1.12,2.58,1.76,4.11,1.76h9.64c.53,0,1.04-.06,1.54-.18,.5,.14,1.04,.21,1.58,.21l9.41-.02c2.07,0,4.13-1.07,5.46-2.69,.27,.38,.59,.73,.95,1.05,1.18,1.04,2.7,1.62,4.26,1.61l9.37-.02c.74,0,1.46-.14,2.13-.39,.69,.27,1.44,.42,2.21,.42h8.76c1.89,0,3.66-.89,4.87-2.29,.41,.49,.78,.81,.99,.97l.09,.07,.1,.07c1.67,1.17,3.4,1.17,3.97,1.17h7.01c1.53,0,3.02-.56,4.2-1.57,1.11-.95,1.88-2.25,2.17-3.65l.19-.9h.38c-.05,1.41,.38,2.78,1.26,3.89,1.12,1.42,2.82,2.23,4.67,2.23h8.42c3.01,0,5.71-2.16,6.42-5.13v-.06s.03-.06,.03-.06l2.7-12.85h2.55c3.01,0,5.71-2.16,6.41-5.13l.02-.09,.02-.09,.38-1.91c.21-1.05,.14-2.11-.18-3.08Zm-275.72,8.81c-1.06,.8-2.43,1.26-3.87,1.26-.03,0-.06,0-.09,0h-.5c1.45,.27,2.25,.72,3.01,1.49,.23,.25,.46,.57,.67,.93l-1.09,5.13v.03s-.01,.03-.01,.03c-.16,.79-.16,1.59-.01,2.35h-8.05c-.57,0-1.18-.72-1.07-1.3,.46-2.29-.15-8.73-2.55-8.73l.61-2.86h1.56c.76,0,2.02-.08,2.25-1.11l.91-4.46c.19-.76-.88-1.1-1.52-1.1h-3.12l-3.89,18.14c-.15,.72-.88,1.41-1.64,1.41h-8.61c-.76,0-1.26-.69-1.1-1.41l4.27-20.04c.15-.72,.91-1.41,1.68-1.41h20.96c1.48,0,2.7,.46,3.43,1.27l-2.21,10.38Zm28.3-8.84h0s0,.01,0,.01l-.4,1.93h-9.95l-.95,4.65h7.05c.76,0,1.22,.65,1.03,1.45l-.23,1.22c-.19,.76-.91,1.41-1.68,1.41h-7.05l-.99,4.61h9.93c-.33,1.61-.17,3.18,.46,4.59-.21,.11-.44,.17-.68,.17h-20.92c-.76,0-1.26-.65-1.11-1.41l4.27-20.04c.15-.76,.91-1.41,1.68-1.41h20.71c-.54,.84-.94,1.77-1.16,2.82Zm30.14,5.26h-8.8c-1.22,0-1.14-1.07-.95-2.06,.3-1.37-.3-2.71-1.71-2.71s-2.59,1.33-2.9,2.71c-.42,2.02-.04,3.51,1.94,3.81l7.01,1.03c3.39,.5,5.91,1.49,5.03,5.64l-.53,2.55c-.53,2.51-3.66,3.81-5.83,3.81h-17.76c-2.17,0-4.72-1.3-4.19-3.81l.61-2.86c.15-.76,.91-1.41,1.68-1.41h8.84c1.22,0,1.14,1.07,.91,2.06-.3,1.37,.34,2.67,1.71,2.67s2.59-1.3,2.9-2.67c.19-.95,.23-1.71-.27-2.48-.38-.57-.95-1.22-1.71-1.33l-6.97-1.03c-3.09-.46-5.83-1.87-4.99-5.64l.53-2.55c.53-2.51,3.62-3.81,5.79-3.81h17.76c.66,0,1.36,.12,1.99,.36,0,.04-.02,.08-.03,.11l-.37,1.85c-.39,1.79,.01,3.61,1.12,5.01,.09,.12,.19,.23,.29,.34-.31,.26-.7,.42-1.1,.42Zm20.83,9.03l-.9,1.65c-.35,.6-.59,1.24-.73,1.9-.14,.64-.18,1.29-.12,1.92-.27,.18-.59,.28-.91,.28h-8.42c-.8,0-1.3-.65-1.1-1.45l3.51-16.65h-6.67c-.8,0-1.3-.65-1.11-1.45l.38-1.91c.15-.76,.95-1.41,1.75-1.41h23.58l-2.58,4.76h-4.09l-2.6,12.35Zm33,5.75h-9.06c-.8,0-1.56-.65-1.56-1.41v-3.16h-5.64l-1.41,3.16c-.3,.76-1.3,1.41-2.06,1.41h-9.41c-.65,0-.95-.53-.8-1.18,.04-.19,.11-.38,.23-.57l10.67-19.7c.38-.72,1.33-1.41,2.13-1.41h14.71c.8,0,1.41,.69,1.49,1.41l1.31,11.14-1.16,5.5c-.35,1.65-.14,3.33,.57,4.81Zm32.77-22.44l-4.27,20.03h0s0,.01,0,.01c-.11,.52-.15,1.05-.12,1.57-.99,.52-2.17,.82-3.38,.82h-16.5c-2.86,0-4.84-1.71-4.38-3.81l3.73-17.64c.15-.76,.95-1.41,1.75-1.41h8.19c.76,0,1.26,.65,1.1,1.41l-3.28,15.43c-.3,1.49,.5,2.67,1.83,2.67s2.63-1.18,2.93-2.67l3.28-15.43c.15-.76,.95-1.41,1.75-1.41h7.45c-.04,.14-.08,.28-.11,.42Zm24.67,12.5s-.06,0-.09,0h-.5c1.45,.27,2.25,.72,3.01,1.49,.37,.39,.71,.95,1.02,1.57l-1.52,2.83c-.34,.6-.59,1.24-.73,1.9-.16,.73-.18,1.45-.09,2.16h-7.18c-.57,0-1.18-.72-1.07-1.3,.46-2.29-.15-8.73-2.55-8.73l.61-2.86h1.56c.76,0,2.02-.08,2.25-1.11l.91-4.46c.19-.76-.88-1.1-1.52-1.1h-3.12l-3.89,18.14c-.15,.72-.88,1.41-1.64,1.41h-8.61c-.76,0-1.26-.69-1.1-1.41l4.27-20.04c.15-.72,.91-1.41,1.68-1.41h20.96c2.78,0,4.65,1.64,4.11,4.15l-.99,4.61c-.53,2.49-3.03,4.15-5.77,4.15Zm34.69,7.54v.03s-.01,.03-.01,.03c-.16,.78-.16,1.57-.02,2.32l-7.9,.02c-.8,0-1.56-.64-1.57-1.41v-3.16s-5.65,.01-5.65,.01l-1.4,3.17c-.3,.76-1.29,1.41-2.05,1.41l-9.41,.02c-.65,0-.95-.53-.8-1.18,.04-.19,.11-.38,.23-.57l10.62-19.72c.38-.72,1.33-1.41,2.13-1.41l14.71-.03c.8,0,1.41,.68,1.49,1.41l1.34,11.1-1.7,7.97Zm33.26,1c-.15,.76-.88,1.41-1.68,1.41h-7.01c-.42,0-.84-.04-1.22-.3,0,0-.34-.27-.57-.76l-4.38-10.63-2.21,10.29c-.15,.76-.88,1.41-1.64,1.41h-8.76c-.76,0-1.26-.65-1.1-1.41l4.27-20.04c.15-.76,.91-1.41,1.68-1.41h7.2c.84,0,1.3,.3,1.64,.99l4.27,10.97,2.25-10.55c.15-.76,.95-1.41,1.71-1.41h7.19c-.04,.15-.08,.31-.11,.47l-.37,1.85c-.39,1.79,.01,3.61,1.12,5.01,.19,.24,.39,.46,.61,.66l-2.87,13.47Zm33.45-20.04l-.38,1.91c-.19,.8-.99,1.45-1.75,1.45h-6.44l-3.51,16.65c-.19,.8-.95,1.45-1.75,1.45h-8.42c-.8,0-1.3-.65-1.11-1.45l3.51-16.65h-6.67c-.8,0-1.3-.65-1.1-1.45l.38-1.91c.15-.76,.95-1.41,1.75-1.41h24.39c.76,0,1.26,.65,1.1,1.41Z"/><path class="cls-1" d="M155.25,24.91c-.76,0-1.52,.69-1.68,1.41l-4.27,20.04c-.15,.72,.34,1.41,1.1,1.41h8.61c.76,0,1.49-.69,1.64-1.41l3.89-18.14h3.12c.65,0,1.71,.34,1.52,1.1l-.91,4.46c-.23,1.03-1.49,1.11-2.25,1.11h-1.56l-.61,2.86c2.4,0,3.01,6.44,2.55,8.73-.11,.57,.5,1.3,1.07,1.3h8.05c-.15-.76-.14-1.56,.01-2.35v-.03s.01-.03,.01-.03l1.09-5.13c-.21-.36-.44-.68-.67-.93-.76-.76-1.56-1.22-3.01-1.49h.5s.06,0,.09,0c1.44,0,2.82-.46,3.87-1.26l2.21-10.38c-.74-.81-1.96-1.27-3.43-1.27h-20.96Z"/><path class="cls-1" d="M184.51,26.32l-4.27,20.04c-.15,.76,.34,1.41,1.11,1.41h20.92c.23,0,.46-.06,.68-.17-.62-1.41-.79-2.99-.46-4.59h-9.93l.99-4.61h7.05c.76,0,1.49-.65,1.68-1.41l.23-1.22c.19-.8-.27-1.45-1.03-1.45h-7.05l.95-4.65h9.95l.4-1.93h0s0-.01,0-.01c.22-1.04,.62-1.98,1.16-2.82h-20.71c-.76,0-1.52,.65-1.68,1.41Z"/><path class="cls-1" d="M235.56,27.22l.37-1.85s.02-.08,.03-.11c-.64-.24-1.33-.36-1.99-.36h-17.76c-2.17,0-5.26,1.3-5.79,3.81l-.53,2.55c-.84,3.77,1.91,5.18,4.99,5.64l6.97,1.03c.76,.11,1.33,.76,1.71,1.33,.5,.76,.46,1.52,.27,2.48-.3,1.37-1.49,2.67-2.9,2.67s-2.02-1.3-1.71-2.67c.23-.99,.3-2.06-.91-2.06h-8.84c-.76,0-1.52,.65-1.68,1.41l-.61,2.86c-.53,2.51,2.02,3.81,4.19,3.81h17.76c2.17,0,5.3-1.3,5.83-3.81l.53-2.55c.88-4.15-1.64-5.14-5.03-5.64l-7.01-1.03c-1.98-.3-2.36-1.79-1.94-3.81,.3-1.37,1.52-2.71,2.9-2.71s2.02,1.33,1.71,2.71c-.19,.99-.27,2.06,.95,2.06h8.8c.4,0,.79-.16,1.1-.42-.1-.11-.2-.22-.29-.34-1.11-1.4-1.51-3.22-1.12-5.01Z"/><path class="cls-1" d="M265.97,24.91h-23.58c-.8,0-1.6,.65-1.75,1.41l-.38,1.91c-.19,.8,.3,1.45,1.11,1.45h6.67l-3.51,16.65c-.19,.8,.3,1.45,1.1,1.45h8.42c.32,0,.64-.11,.91-.28-.06-.63-.02-1.27,.12-1.92,.14-.66,.39-1.3,.73-1.9l.9-1.65,2.6-12.35h4.09l2.58-4.76Z"/><path class="cls-1" d="M290.3,37.45l-1.31-11.14c-.08-.72-.69-1.41-1.49-1.41h-14.71c-.8,0-1.75,.69-2.13,1.41l-10.67,19.7c-.11,.19-.19,.38-.23,.57-.15,.65,.15,1.18,.8,1.18h9.41c.76,0,1.75-.65,2.06-1.41l1.41-3.16h5.64v3.16c0,.76,.76,1.41,1.56,1.41h9.06c-.71-1.48-.92-3.17-.57-4.81l1.16-5.5Zm-15.45,2.35l4.15-9.68,.08,9.68h-4.23Z"/><polygon class="cls-3" points="274.85 39.8 279.07 39.8 279 30.13 274.85 39.8"/><path class="cls-1" d="M313.37,26.32l-3.28,15.43c-.3,1.49-1.64,2.67-2.93,2.67s-2.13-1.18-1.83-2.67l3.28-15.43c.15-.76-.34-1.41-1.1-1.41h-8.19c-.8,0-1.6,.65-1.75,1.41l-3.73,17.64c-.46,2.1,1.52,3.81,4.38,3.81h16.5c1.21,0,2.39-.31,3.38-.82-.03-.52,.01-1.05,.12-1.57h0s0-.01,0-.01l4.27-20.03c.03-.14,.07-.28,.11-.42h-7.45c-.8,0-1.6,.65-1.75,1.41Z"/><path class="cls-1" d="M349.79,24.91h-20.96c-.76,0-1.52,.69-1.68,1.41l-4.27,20.04c-.15,.72,.34,1.41,1.1,1.41h8.61c.76,0,1.49-.69,1.64-1.41l3.89-18.14h3.12c.65,0,1.71,.34,1.52,1.1l-.91,4.46c-.23,1.03-1.49,1.11-2.25,1.11h-1.56l-.61,2.86c2.4,0,3.01,6.44,2.55,8.73-.11,.57,.5,1.3,1.07,1.3h7.18c-.1-.7-.07-1.43,.09-2.16,.14-.66,.38-1.3,.73-1.9l1.52-2.83c-.3-.62-.65-1.18-1.02-1.57-.76-.76-1.56-1.22-3.01-1.49h.5s.06,0,.09,0c2.75,0,5.25-1.67,5.77-4.15l.99-4.61c.53-2.51-1.33-4.15-4.11-4.15Z"/><path class="cls-1" d="M380.7,24.88l-14.71,.03c-.8,0-1.75,.69-2.13,1.41l-10.62,19.72c-.11,.19-.19,.38-.23,.57-.15,.65,.16,1.18,.8,1.18l9.41-.02c.76,0,1.75-.65,2.05-1.41l1.4-3.17h5.64s0,3.15,0,3.15c0,.76,.77,1.41,1.57,1.41l7.9-.02c-.14-.75-.14-1.54,.02-2.32v-.03s.01-.03,.01-.03l1.7-7.97-1.34-11.1c-.08-.72-.69-1.41-1.49-1.41Zm-12.62,14.93l4.13-9.69,.1,9.68h-4.23Z"/><polygon class="cls-3" points="368.09 39.81 372.31 39.8 372.22 30.12 368.09 39.81"/><path class="cls-1" d="M416.23,27.22l.37-1.85c.03-.16,.07-.32,.11-.47h-7.19c-.76,0-1.56,.65-1.71,1.41l-2.25,10.55-4.27-10.97c-.34-.69-.8-.99-1.64-.99h-7.2c-.76,0-1.52,.65-1.68,1.41l-4.27,20.04c-.15,.76,.34,1.41,1.1,1.41h8.76c.76,0,1.49-.65,1.64-1.41l2.21-10.29,4.38,10.63c.23,.5,.57,.76,.57,.76,.38,.27,.8,.3,1.22,.3h7.01c.8,0,1.52-.65,1.68-1.41l2.87-13.47c-.22-.2-.42-.42-.61-.66-1.11-1.4-1.51-3.22-1.12-5.01Z"/><path class="cls-1" d="M447.44,24.91h-24.39c-.8,0-1.6,.65-1.75,1.41l-.38,1.91c-.19,.8,.3,1.45,1.1,1.45h6.67l-3.51,16.65c-.19,.8,.3,1.45,1.11,1.45h8.42c.8,0,1.56-.65,1.75-1.45l3.51-16.65h6.44c.76,0,1.56-.65,1.75-1.45l.38-1.91c.15-.76-.34-1.41-1.1-1.41Z"/></svg>