<?xml version="1.0" encoding="UTF-8"?><svg id="_图层_1" xmlns="http://www.w3.org/2000/svg" viewBox="0 0 480.46 359.46"><defs><style>.cls-1{fill:#e9eff2;}.cls-2{fill:none;}</style></defs><path class="cls-2" d="M148,278.32c0-.17-.01-.35,0-.52-.09,.26-.23,.48-.34,.73,.11-.07,.22-.14,.34-.21Z"/><path class="cls-2" d="M144.02,268.51l.84-4.03c1.38-6.56-2.59-8.13-7.94-8.91l-11.07-1.62c-3.13-.48-3.73-2.83-3.07-6.02,.48-2.17,2.41-4.27,4.57-4.27s3.19,2.11,2.71,4.27c-.3,1.56-.42,3.25,1.5,3.25h13.9c.42,0,.83-.15,1.2-.34-.33-.31-.68-.6-.96-.97-1.71-2.17-2.34-4.98-1.73-7.75l.58-2.92c.03-.16,.1-.31,.14-.48-.74-.19-1.51-.3-2.25-.3h-28.05c-3.43,0-8.31,2.05-9.15,6.02l-.84,4.03c-1.32,5.96,3.01,8.19,7.88,8.91l11.01,1.63c1.2,.18,2.11,1.2,2.71,2.11,.78,1.2,.72,2.41,.42,3.91-.48,2.17-2.35,4.21-4.57,4.21s-3.19-2.05-2.71-4.21c.36-1.56,.48-3.25-1.44-3.25h-13.96c-1.2,0-2.41,1.02-2.65,2.23l-.96,4.51c-.84,3.97,3.19,6.02,6.62,6.02h28.05c3.43,0,8.37-2.05,9.21-6.02Z"/><path class="cls-2" d="M65.53,240.64l-6.74,31.66c-.24,1.2,.54,2.23,1.75,2.23h33.04c.07,0,.13-.03,.19-.04-1.09-2.28-1.4-4.86-.85-7.48h-14.69l1.56-7.28h11.13c1.2,0,2.35-1.02,2.65-2.23l.36-1.93c.3-1.26-.42-2.29-1.63-2.29h-11.13l1.5-7.34h14.73l.64-3.03c.35-1.67,1.02-3.16,1.89-4.49h-31.76c-1.2,0-2.41,1.02-2.65,2.23Z"/><path class="cls-2" d="M20.5,238.42c-1.2,0-2.41,1.08-2.65,2.23l-6.74,31.66c-.24,1.14,.54,2.23,1.75,2.23h13.6c1.2,0,2.35-1.08,2.59-2.23l6.14-28.65h4.93c1.02,0,2.71,.54,2.41,1.74l-1.44,7.04c-.36,1.63-2.35,1.75-3.55,1.75h-2.47l-.96,4.51c3.79,0,4.75,10.17,4.03,13.78-.18,.9,.78,2.05,1.69,2.05h11.76c-.23-1.21-.27-2.48,0-3.76l1.96-9.22c-.1-.12-.2-.27-.3-.37-1.2-1.2-2.47-1.93-4.75-2.35h.78s.1,0,.15,0c1.79,0,3.51-.47,4.97-1.28l3.79-17.82c-1.16-.83-2.73-1.31-4.58-1.31H20.5Z"/><path class="cls-2" d="M224.63,231.04c1.82,0,3.53,.51,4.99,1.39-1.46-.88-3.17-1.39-4.99-1.39Z"/><path class="cls-2" d="M152.04,231.04h20.06c-1.36-1.02-2.63-2.16-3.8-3.41l-11.08-11.84-13.1,12.29-2.83,2.82c-.05,.05-.11,.1-.16,.15h1.33c1.95,0,3.82,.35,5.55,.98,1.25-.62,2.62-.98,4.03-.98Z"/><path class="cls-2" d="M123.64,217.38l.71,1.24c.07,.12,.14,.23,.22,.34,.08,.11,.16,.21,.25,.31,.09,.1,.19,.19,.29,.27,.2,.17,.42,.32,.65,.44s.48,.22,.74,.28c.13,.03,.26,.06,.39,.08,.15,.02,.31,.03,.46,.03,.25,0,.5-.03,.74-.08,.2-.04,.39-.1,.58-.18,.42-.17,.8-.42,1.13-.75l1.5-1.49,1.5-1.49,1.46-1.37,23.7-22.24,22.22,23.75c.16,.17,.33,.34,.5,.5,.85,.82,1.79,1.51,2.8,2.08,.41,.23,.82,.43,1.25,.62,.43,.19,.86,.35,1.3,.49,.44,.14,.89,.26,1.35,.36,.91,.19,1.85,.29,2.79,.29h.02c2.84,0,5.6-.91,7.89-2.53,.76-.54,1.47-1.16,2.12-1.86l42.78-46.22c5.09-2.83,12.27-5.17,20.73-3.31,0,0,5.1,2.64,15.18-8.35,0,0,34.14-32.82,25.9-42.96l-26.02,26.69s-4.3,2.61-7.33,.16c-3.03-2.46-1.3-7.08-1.3-7.08,0,0,27.16-26.94,23.79-34.2-7.4-3.05-33.15,25.23-33.15,25.23,0,0-4.54,1.93-7.13-.99-2.58-2.92-.16-7.33-.16-7.33l25.55-27.13c-10.48-7.8-41.81,27.71-41.81,27.71-10.55,10.54-7.69,15.52-7.69,15.52,2.18,8.2,.28,15.35-2.26,20.53l-37.15,40.14-23.35-24.95c-2.51-2.69-6.06-4.27-9.74-4.33-.65,0-1.31,.06-1.98,.16-.44,.07-.89,.15-1.33,.26-.22,.05-.44,.11-.66,.17-2.19,.63-4.29,1.76-5.92,3.39l-12.05,12c-.09-.29-.19-.58-.27-.87-.36-1.24-.69-2.48-1-3.73s-.6-2.49-.87-3.74c-.27-1.25-.51-2.5-.74-3.76-.11-.63-.22-1.25-.32-1.88-.2-1.25-.38-2.51-.54-3.77-.55-4.4-.82-8.8-.82-13.18,0-9.44,1.2-18.61,3.46-27.36,.68-2.62,1.45-5.21,2.31-7.76,.29-.85,.59-1.69,.89-2.53,.62-1.68,1.27-3.34,1.96-4.97,1.04-2.46,2.17-4.87,3.38-7.23,.81-1.58,1.65-3.13,2.53-4.66,1.32-2.29,2.72-4.54,4.2-6.72,.99-1.46,2.01-2.89,3.06-4.3,.53-.7,1.06-1.4,1.6-2.09,1.63-2.07,3.33-4.08,5.1-6.03,1.18-1.3,2.39-2.57,3.63-3.81,1.24-1.24,2.51-2.45,3.81-3.63,.65-.59,1.31-1.17,1.97-1.75,1.33-1.15,2.68-2.27,4.06-3.35,2.76-2.17,5.63-4.21,8.59-6.12,1.48-.95,2.99-1.87,4.52-2.75,6.89-3.96,14.24-7.2,21.96-9.61,1.72-.53,3.45-1.03,5.2-1.48,8.75-2.26,17.92-3.46,27.36-3.46,2.59,0,5.23,.09,7.83,.27,54.42,3.8,98.07,47.73,101.53,102.18,1.95,30.6-8.51,59.75-29.46,82.08-1.79,1.9-3.66,3.71-5.56,5.47h6.14c4.66,0,8.79,1.81,11.34,4.95,.71,.88,1.25,1.86,1.68,2.87l.4-.83c1.93-4.12,6.03-7,9.98-7h3.69s.04-.05,.06-.07c1.61-2.16,3.16-4.36,4.65-6.61,.59-.9,1.18-1.81,1.75-2.73,.57-.92,1.13-1.84,1.69-2.77s1.09-1.87,1.62-2.81c.53-.94,1.05-1.9,1.55-2.86,.51-.96,1-1.92,1.49-2.9,.73-1.46,1.43-2.93,2.1-4.42,.22-.5,.45-.99,.66-1.49,.66-1.5,1.29-3.01,1.89-4.53,.4-1.02,.79-2.04,1.17-3.07,.38-1.03,.74-2.06,1.09-3.1,1.41-4.16,2.62-8.41,3.62-12.74,.25-1.08,.49-2.17,.71-3.26,.56-2.73,1.04-5.49,1.43-8.28,.31-2.23,.57-4.48,.77-6.74,.05-.57,.1-1.13,.14-1.7,.09-1.14,.16-2.28,.22-3.42,.06-1.14,.1-2.29,.13-3.44,.03-1.15,.04-2.3,.04-3.46,0-9.72-1.08-19.52-3.22-29.14-6.52-29.36-23.05-56.04-46.54-75.15-23.84-19.39-53.88-30.06-84.59-30.06s-57.35,9.37-80.81,27.1c-.71,.54-1.41,1.08-2.11,1.63-1.4,1.1-2.77,2.23-4.12,3.38-.67,.58-1.34,1.16-2.01,1.75-1.99,1.77-3.92,3.6-5.8,5.48-3.76,3.76-7.29,7.75-10.58,11.92-4.38,5.56-8.33,11.46-11.8,17.63-1.73,3.08-3.34,6.23-4.83,9.44-.37,.8-.73,1.61-1.09,2.42-2.13,4.85-3.97,9.83-5.5,14.9-.47,1.57-.92,3.15-1.33,4.73-.62,2.38-1.18,4.77-1.67,7.17-.49,2.4-.91,4.82-1.27,7.24-.95,6.47-1.43,13-1.43,19.56,0,2.94,.1,5.88,.29,8.81,.26,3.91,.7,7.8,1.31,11.68,.28,1.75,.59,3.5,.94,5.24,.07,.35,.14,.71,.22,1.06,.51,2.47,1.09,4.92,1.74,7.37,.12,.46,.25,.92,.37,1.38,.47,1.69,.97,3.38,1.51,5.07,.3,.95,.62,1.89,.94,2.83,.32,.94,.66,1.88,1,2.82,2.69,7.31,5.89,14.2,9.5,20.48Z"/><path class="cls-2" d="M277.68,239.12c.05-.24,.15-.47,.22-.71h-10.82c-1.26,0-2.53,1.02-2.77,2.23l-5.18,24.37c-.48,2.35-2.59,4.21-4.63,4.21s-3.37-1.87-2.89-4.21l5.18-24.37c.24-1.2-.54-2.23-1.75-2.23h-12.94c-1.26,0-2.53,1.02-2.77,2.23l-5.9,27.87c-.72,3.31,2.41,6.02,6.92,6.02h26.06c1.56,0,3.07-.34,4.42-.9-.09-.94-.09-1.9,.11-2.86l6.74-31.64Z"/><path class="cls-2" d="M228.7,255.23l-1.72-14.59c-.12-1.14-1.08-2.23-2.35-2.23h-23.23c-1.26,0-2.77,1.08-3.37,2.23l-16.85,31.11c-.18,.3-.3,.6-.36,.9-.24,1.02,.24,1.87,1.26,1.87h14.86c1.2,0,2.77-1.02,3.25-2.23l2.23-5h8.91v5c0,1.2,1.2,2.23,2.47,2.23h13.34c-1.15-2.33-1.49-4.98-.93-7.55l2.49-11.75Zm-24.05,6.72l6.56-15.29,.12,15.29h-6.68Z"/><path class="cls-2" d="M316.46,258.82c4.34,0,8.29-2.63,9.12-6.56l1.56-7.28c.84-3.97-2.11-6.56-6.5-6.56h-33.1c-1.2,0-2.41,1.08-2.65,2.23l-6.74,31.66c-.24,1.14,.54,2.23,1.75,2.23h13.6c1.2,0,2.35-1.08,2.59-2.23l6.14-28.65h4.93c1.02,0,2.71,.54,2.41,1.74l-1.44,7.04c-.36,1.63-2.35,1.75-3.55,1.75h-2.47l-.96,4.51c3.79,0,4.75,10.17,4.03,13.78-.18,.9,.78,2.05,1.69,2.05h10.35c-.17-1.12-.18-2.27,.08-3.43,.22-1.02,.6-2.02,1.14-2.96l2.94-5.43c-.35-.59-.71-1.14-1.1-1.54-1.2-1.2-2.47-1.93-4.75-2.35h.78s.1,0,.15,0Z"/><path class="cls-2" d="M174.74,268.14l3.06-5.64,3.49-16.56h5.48l4.07-7.52h-36.28c-1.26,0-2.53,1.02-2.77,2.23l-.6,3.01c-.3,1.26,.48,2.29,1.75,2.29h10.53l-5.54,26.3c-.3,1.26,.48,2.29,1.75,2.29h13.3c.18,0,.35-.06,.53-.1-.15-1.09-.16-2.21,.09-3.33,.22-1.02,.6-2.02,1.14-2.96Z"/><path class="cls-2" d="M471.32,238.42h-38.52c-1.26,0-2.53,1.02-2.77,2.23l-.6,3.01c-.3,1.26,.48,2.29,1.75,2.29h10.53l-5.54,26.3c-.3,1.26,.48,2.29,1.75,2.29h13.3c1.26,0,2.47-1.02,2.77-2.29l5.54-26.3h10.17c1.2,0,2.47-1.02,2.77-2.29l.6-3.01c.24-1.2-.54-2.23-1.75-2.23Z"/><path class="cls-2" d="M335.56,284.26h-37.91c-6.57,0-12.78,3.94-13.75,8.76l-7.44,35.02c-1.05,4.82,3.5,8.76,10.07,8.76h37.91c6.57,0,12.7-3.94,13.75-8.76l7.44-35.02c.96-4.82-3.5-8.76-10.07-8.76Zm-16.46,13.83l-5.25,24.87c-.7,3.42-3.76,6.13-6.83,6.13s-4.82-2.71-4.12-6.13l5.25-24.87c.79-3.41,3.85-6.22,6.83-6.22s4.9,2.8,4.12,6.22Z"/><path class="cls-2" d="M423.94,249.87c-1.71-2.17-2.34-4.98-1.73-7.75l.58-2.92c.05-.27,.16-.52,.23-.78h-10.4c-1.2,0-2.47,1.02-2.71,2.23l-3.55,16.67-6.74-17.33c-.54-1.08-1.26-1.56-2.59-1.56h-11.38c-1.2,0-2.41,1.02-2.65,2.23l-6.74,31.66c-.24,1.2,.54,2.23,1.75,2.23h13.84c1.2,0,2.35-1.02,2.59-2.23l3.49-16.25,6.92,16.79c.36,.78,.9,1.2,.9,1.2,.6,.42,1.26,.48,1.93,.48h11.07c1.26,0,2.41-1.02,2.65-2.23l4.41-20.71c-.69-.49-1.34-1.05-1.88-1.73Z"/><path class="cls-2" d="M368.32,238.42h-23.23c-1.26,0-2.77,1.08-3.37,2.23l-16.85,31.11c-.18,.3-.3,.6-.36,.9-.24,1.02,.24,1.87,1.26,1.87h14.86c1.2,0,2.77-1.02,3.25-2.23l2.23-5h8.91v5c0,1.2,1.2,2.23,2.47,2.23h11.58c-.24-1.21-.27-2.48-.01-3.76l3.32-15.59-1.71-14.53c-.12-1.14-1.08-2.23-2.35-2.23Zm-19.98,23.53l6.56-15.29,.12,15.29h-6.68Z"/><path class="cls-2" d="M277.11,289.93c-.97-3.53-4.59-5.67-9.41-5.67h-48.16c-1.75,0-3.5,1.58-3.85,3.24l-9.81,46.06c-.35,1.66,.79,3.24,2.54,3.24h19.79c1.75,0,3.41-1.58,3.76-3.24l8.93-41.68h7.18c1.49,0,3.94,.79,3.5,2.54l-2.1,10.24c-.53,2.36-3.42,2.54-5.17,2.54h-3.59l-1.4,6.57c5.52,0,6.92,14.8,5.87,20.05-.26,1.31,1.14,2.98,2.45,2.98h22.15c.43,0,.85-.07,1.24-.18-1.93-3.02-2.57-6.57-1.8-10.11l.88-4.15c-.82-1.96-1.85-3.82-2.95-4.99-1.75-1.75-3.59-2.8-6.92-3.41h1.14c.07,0,.14,0,.21,0,4.68,0,9.04-2.11,11.48-5.53l3.58-16.84c.11-.55,.26-1.1,.44-1.64Z"/><path class="cls-2" d="M199.93,284.26h-46.49c-1.84,0-3.68,1.49-4.03,3.24l-9.72,45.97c-.44,1.84,.79,3.33,2.63,3.33h18.82c1.75,0,3.5-1.49,3.94-3.33l3.41-16.37h24.43c3.54,0,6.97-1.15,9.55-2.96l5.73-26.89c-1.8-1.82-4.72-2.98-8.28-2.98Zm-15.5,10.24l-2.8,13.4c-.35,1.4-2.8,2.54-5.43,2.54h-6.3l4.03-18.56h6.31c2.63,0,4.55,1.14,4.2,2.63Z"/><polygon class="cls-1" points="204.65 261.95 211.33 261.95 211.21 246.66 204.65 261.95"/><polygon class="cls-1" points="348.34 261.95 355.02 261.95 354.9 246.66 348.34 261.95"/><path class="cls-1" d="M480.42,240.7c.12-2.3-.55-4.55-2.01-6.33-1.41-1.72-3.4-2.81-5.58-3.16-.47-.09-.94-.15-1.42-.16-.03,0-.06,0-.09,0h-38.89c-1.03,0-2.03,.22-2.99,.56-.96-.33-1.97-.56-3.03-.56h-14.31c-2.77,0-5.38,1.35-7.27,3.51-1.89-2.28-4.58-3.51-7.79-3.51h-12.11c-3.29,0-6.34,1.94-8.22,4.88-1.69-2.92-4.82-4.88-8.39-4.88h-.88c14.76-23.29,23.35-50.85,23.35-80.41,0-10.9-1.21-21.89-3.61-32.67-7.31-32.92-25.84-62.84-52.16-84.25C308.29,11.97,274.6,0,240.16,0s-64.32,10.51-90.63,30.39c-25.42,19.21-44.46,46.5-53.6,76.84-4.25,14.09-6.4,28.69-6.4,43.4,0,17.62,3.14,35.08,9.33,51.89,3.01,8.17,6.6,15.9,10.66,22.97l.71,1.23c.92,1.61,2.09,3.04,3.4,4.31h-2.05c-1.94,0-3.99,.39-5.96,1.15-1.33-.73-2.82-1.15-4.4-1.15h-36.23c-1.69,0-3.31,.52-4.75,1.41-1.98-.91-4.23-1.41-6.64-1.41H16.94c-4.69,0-8.96,3.95-9.94,9.18L.21,276.13c-.59,3.15,.09,6.36,1.86,8.82,1.75,2.43,4.37,3.83,7.17,3.83h13.71c2.6,0,5.08-1.23,6.93-3.24,1.75,2.07,4.09,3.24,6.53,3.24h15.34c.98,0,1.93-.2,2.85-.5,.86,.29,1.75,.5,2.68,.5h33.3c2.07,0,4.04-.8,5.69-2.12,2.24,1.35,4.86,2.12,7.6,2.12h28.26c3.44,0,7.18-1.25,10.28-3.58-.08,.28-.19,.56-.24,.85l-.46,2.18c-1.05,1.52-1.81,3.31-2.16,5.26l-9.76,52.01c-.69,3.45-.01,6.96,1.88,9.66,1.92,2.74,4.85,4.31,8.03,4.31h18.97c5.24,0,9.95-4.3,11.2-10.21l.02-.11,.02-.11,2.21-11.92h18.57c2.67,0,5.26-.49,7.67-1.37l-1.88,9.93c-.65,3.44,.1,6.95,2.03,9.63,1.91,2.65,4.75,4.16,7.8,4.16h19.94c4.37,0,8.42-3.12,10.26-7.59,.39,1.2,.98,2.34,1.73,3.38,1.95,2.68,4.72,4.21,7.59,4.21h22.32c2.62,0,5.1-.96,7.04-2.66,2.82,1.71,6.18,2.66,9.82,2.66h38.21c10.21,0,19.29-7.11,21.12-16.53l7.51-39.8c.29-1.65,.35-3.28,.2-4.87l.79-3.72c.47-2.33,.34-4.61-.31-6.75,1.23,.62,2.58,.98,3.99,.98h14.92c1.05,0,2.04-.2,2.98-.54,.9,.32,1.83,.54,2.8,.54h13.95c3.02,0,5.86-1.64,7.75-4.22,.69,.97,1.34,1.6,1.69,1.91l.15,.13,.15,.12c2.61,2.06,5.32,2.06,6.21,2.06h11.16c4.82,0,9.01-3.89,9.96-9.26l.12-.66c.08,2.18,.71,4.27,1.92,5.99,1.75,2.49,4.4,3.92,7.29,3.92h13.4c4.7,0,8.92-3.8,10.02-9.03l.02-.11,.02-.11,4.34-23.2h4.22c4.7,0,8.92-3.8,10.02-9.03l.03-.15,.03-.15,.61-3.42c.17-.97,.19-1.93,.13-2.88ZM113.14,194.08c-.32-.94-.64-1.89-.94-2.83-.54-1.68-1.04-3.37-1.51-5.07-.13-.46-.25-.92-.37-1.38-.65-2.45-1.23-4.9-1.74-7.37-.07-.35-.15-.71-.22-1.06-.35-1.74-.66-3.49-.94-5.24-.61-3.87-1.04-7.77-1.31-11.68-.2-2.93-.29-5.87-.29-8.81,0-6.56,.48-13.09,1.43-19.56,.36-2.42,.78-4.84,1.27-7.24,.49-2.4,1.05-4.79,1.67-7.17,.41-1.58,.86-3.16,1.33-4.73,1.53-5.07,3.37-10.05,5.5-14.9,.35-.81,.72-1.61,1.09-2.42,1.48-3.21,3.09-6.36,4.83-9.44,3.46-6.17,7.41-12.06,11.8-17.63,3.29-4.17,6.82-8.16,10.58-11.92,1.88-1.88,3.81-3.71,5.8-5.48,.66-.59,1.33-1.17,2.01-1.75,1.35-1.15,2.72-2.28,4.12-3.38,.7-.55,1.4-1.09,2.11-1.63,23.46-17.73,51.4-27.1,80.81-27.1s60.75,10.68,84.59,30.06c23.49,19.1,40.02,45.79,46.54,75.15,2.14,9.62,3.22,19.42,3.22,29.14,0,1.16-.01,2.31-.04,3.46-.03,1.15-.07,2.3-.13,3.44-.06,1.14-.13,2.28-.22,3.42-.04,.57-.09,1.13-.14,1.7-.2,2.26-.46,4.51-.77,6.74-.39,2.79-.87,5.55-1.43,8.28-.22,1.09-.46,2.18-.71,3.26-1,4.33-2.21,8.58-3.62,12.74-.35,1.04-.72,2.07-1.09,3.1-.38,1.03-.77,2.05-1.17,3.07-.6,1.52-1.23,3.04-1.89,4.53-.22,.5-.44,1-.66,1.49-.67,1.49-1.37,2.96-2.1,4.42-.48,.97-.98,1.94-1.49,2.9-.51,.96-1.02,1.91-1.55,2.86-.53,.94-1.07,1.88-1.62,2.81s-1.11,1.85-1.69,2.77c-.57,.92-1.15,1.82-1.75,2.73-1.48,2.25-3.03,4.46-4.65,6.61-.02,.02-.04,.05-.06,.07h-3.69c-3.95,0-8.05,2.88-9.98,7l-.4,.83c-.43-1.02-.97-1.99-1.68-2.87-2.55-3.15-6.68-4.95-11.34-4.95h-6.14c1.91-1.76,3.78-3.57,5.56-5.47,20.95-22.32,31.41-51.47,29.46-82.08-3.47-54.45-47.12-98.38-101.53-102.18-2.6-.18-5.24-.27-7.83-.27-9.44,0-18.61,1.2-27.36,3.46-1.75,.45-3.48,.94-5.2,1.48-7.72,2.41-15.07,5.64-21.96,9.61-1.53,.88-3.04,1.8-4.52,2.75-2.96,1.9-5.83,3.94-8.59,6.12-1.38,1.09-2.74,2.2-4.06,3.35-.66,.57-1.32,1.16-1.97,1.75-1.3,1.18-2.57,2.39-3.81,3.63-1.24,1.24-2.45,2.51-3.63,3.81-1.77,1.95-3.47,3.96-5.1,6.03-.54,.69-1.08,1.39-1.6,2.09-1.05,1.41-2.07,2.84-3.06,4.3-1.48,2.19-2.88,4.43-4.2,6.72-.88,1.53-1.73,3.08-2.53,4.66-1.21,2.36-2.34,4.77-3.38,7.23-.69,1.64-1.35,3.3-1.96,4.97-.31,.84-.61,1.68-.89,2.53-.86,2.54-1.64,5.13-2.31,7.76-2.26,8.75-3.46,17.92-3.46,27.36,0,4.38,.28,8.78,.82,13.18,.16,1.26,.34,2.51,.54,3.77,.1,.63,.21,1.25,.32,1.88,.22,1.25,.47,2.51,.74,3.76,.27,1.25,.56,2.5,.87,3.74s.64,2.49,1,3.73c.08,.29,.19,.58,.27,.87l12.05-12c1.63-1.62,3.73-2.76,5.92-3.39,.22-.06,.44-.12,.66-.17,.44-.11,.89-.19,1.33-.26,.66-.1,1.33-.15,1.98-.16,3.68,.07,7.23,1.65,9.74,4.33l23.35,24.95,37.15-40.14c2.53-5.18,4.44-12.33,2.26-20.53,0,0-2.86-4.98,7.69-15.52,0,0,31.33-35.51,41.81-27.71l-25.55,27.13s-2.43,4.41,.16,7.33c2.58,2.92,7.13,.99,7.13,.99,0,0,25.75-28.29,33.15-25.23,3.36,7.26-23.79,34.2-23.79,34.2,0,0-1.74,4.62,1.3,7.08,3.03,2.46,7.33-.16,7.33-.16l26.02-26.69c8.24,10.14-25.9,42.96-25.9,42.96-10.08,10.99-15.18,8.35-15.18,8.35-8.46-1.87-15.64,.47-20.73,3.31l-42.78,46.22c-.64,.7-1.35,1.32-2.12,1.86-2.29,1.62-5.05,2.52-7.89,2.53h-.02c-.94,0-1.88-.1-2.79-.29-.46-.1-.91-.21-1.35-.36-.44-.14-.88-.3-1.3-.49-.43-.19-.84-.39-1.25-.62-1.01-.57-1.96-1.27-2.8-2.08-.17-.16-.33-.33-.5-.5l-22.22-23.75-23.7,22.24-1.46,1.37-1.5,1.49-1.5,1.49c-.33,.33-.71,.58-1.13,.75-.19,.08-.38,.14-.58,.18-.24,.05-.49,.08-.74,.08-.15,0-.31-.01-.46-.03-.13-.02-.26-.04-.39-.08-.26-.07-.51-.16-.74-.28s-.45-.27-.65-.44c-.1-.09-.2-.18-.29-.27-.09-.1-.18-.2-.25-.31-.08-.11-.15-.22-.22-.34l-.71-1.24c-3.61-6.28-6.81-13.17-9.5-20.48-.35-.94-.68-1.88-1-2.82Zm207.15,67.09c.38,.41,.75,.95,1.1,1.54l-2.94,5.43c-.54,.94-.92,1.93-1.14,2.96-.26,1.16-.25,2.32-.08,3.43h-10.35c-.9,0-1.87-1.14-1.69-2.05,.72-3.61-.24-13.78-4.03-13.78l.96-4.51h2.47c1.2,0,3.19-.12,3.55-1.75l1.44-7.04c.3-1.2-1.38-1.74-2.41-1.74h-4.93l-6.14,28.65c-.24,1.14-1.38,2.23-2.59,2.23h-13.6c-1.2,0-1.99-1.08-1.75-2.23l6.74-31.66c.24-1.14,1.44-2.23,2.65-2.23h33.1c4.39,0,7.34,2.59,6.5,6.56l-1.56,7.28c-.83,3.93-4.79,6.56-9.12,6.56-.05,0-.1,0-.15,0h-.78c2.29,.42,3.55,1.14,4.75,2.35Zm-49.45,12.46c-1.35,.56-2.86,.9-4.42,.9h-26.06c-4.52,0-7.64-2.71-6.92-6.02l5.9-27.87c.24-1.2,1.5-2.23,2.77-2.23h12.94c1.2,0,1.99,1.02,1.75,2.23l-5.18,24.37c-.48,2.35,.78,4.21,2.89,4.21s4.15-1.87,4.63-4.21l5.18-24.37c.24-1.2,1.5-2.23,2.77-2.23h10.82c-.07,.24-.16,.46-.22,.71l-6.74,31.64c-.2,.96-.2,1.92-.11,2.86Zm-43.7,.9h-13.34c-1.26,0-2.47-1.02-2.47-2.23v-5h-8.91l-2.23,5c-.48,1.2-2.05,2.23-3.25,2.23h-14.86c-1.02,0-1.51-.84-1.26-1.87,.06-.3,.18-.6,.36-.9l16.85-31.11c.6-1.14,2.11-2.23,3.37-2.23h23.23c1.26,0,2.23,1.08,2.35,2.23l1.72,14.59-2.49,11.75c-.56,2.56-.22,5.21,.93,7.55Zm-53.62-.1c-.18,.04-.35,.1-.53,.1h-13.3c-1.26,0-2.05-1.02-1.75-2.29l5.54-26.3h-10.53c-1.26,0-2.05-1.02-1.75-2.29l.6-3.01c.24-1.2,1.5-2.23,2.77-2.23h36.28l-4.07,7.52h-5.48l-3.49,16.56-3.06,5.64c-.54,.94-.92,1.93-1.14,2.96-.25,1.12-.25,2.24-.09,3.33Zm-31.05-43.39h-1.33c.05-.05,.11-.1,.16-.15l2.83-2.82,13.1-12.29,11.08,11.84c1.17,1.25,2.45,2.39,3.8,3.41h-20.06c-1.41,0-2.78,.36-4.03,.98-1.73-.63-3.61-.98-5.55-.98Zm5.54,47.28c-.12,.06-.23,.14-.34,.21,.1-.25,.24-.47,.34-.73,0,.18,0,.35,0,.52Zm76.63-47.28c1.82,0,3.53,.51,4.99,1.39-1.46-.88-3.17-1.39-4.99-1.39Zm-170.24,26.5c-1.47,.81-3.18,1.28-4.97,1.28-.05,0-.1,0-.15,0h-.78c2.29,.42,3.55,1.14,4.75,2.35,.1,.11,.2,.25,.3,.37l-1.96,9.22c-.26,1.29-.22,2.55,0,3.76h-11.76c-.9,0-1.87-1.14-1.69-2.05,.72-3.61-.24-13.78-4.03-13.78l.96-4.51h2.47c1.2,0,3.19-.12,3.55-1.75l1.44-7.04c.3-1.2-1.38-1.74-2.41-1.74h-4.93l-6.14,28.65c-.24,1.14-1.38,2.23-2.59,2.23H12.86c-1.2,0-1.99-1.08-1.75-2.23l6.74-31.66c.24-1.14,1.44-2.23,2.65-2.23H53.6c1.85,0,3.42,.48,4.58,1.31l-3.79,17.82Zm43.66-14.64l-.64,3.03h-14.73l-1.5,7.34h11.13c1.2,0,1.93,1.02,1.63,2.29l-.36,1.93c-.3,1.2-1.44,2.23-2.65,2.23h-11.13l-1.56,7.28h14.69c-.55,2.63-.25,5.21,.85,7.48-.07,0-.13,.04-.19,.04H60.54c-1.2,0-1.99-1.02-1.75-2.23l6.74-31.66c.24-1.2,1.44-2.23,2.65-2.23h31.76c-.87,1.33-1.54,2.82-1.89,4.49Zm36.77,31.62h-28.05c-3.43,0-7.46-2.05-6.62-6.02l.96-4.51c.24-1.2,1.44-2.23,2.65-2.23h13.96c1.93,0,1.81,1.69,1.44,3.25-.48,2.17,.54,4.21,2.71,4.21s4.09-2.05,4.57-4.21c.3-1.5,.36-2.71-.42-3.91-.6-.9-1.5-1.93-2.71-2.11l-11.01-1.63c-4.88-.72-9.21-2.95-7.88-8.91l.84-4.03c.84-3.97,5.72-6.02,9.15-6.02h28.05c.74,0,1.5,.11,2.25,.3-.04,.16-.11,.31-.14,.48l-.58,2.92c-.61,2.77,.02,5.58,1.73,7.75,.29,.36,.63,.66,.96,.97-.38,.2-.78,.34-1.2,.34h-13.9c-1.93,0-1.81-1.69-1.5-3.25,.48-2.17-.48-4.27-2.71-4.27s-4.09,2.11-4.57,4.27c-.66,3.19-.06,5.54,3.07,6.02l11.07,1.62c5.36,.78,9.33,2.35,7.94,8.91l-.84,4.03c-.84,3.97-5.78,6.02-9.21,6.02Zm58.11,42.56h-24.43l-3.41,16.37c-.44,1.84-2.19,3.33-3.94,3.33h-18.82c-1.84,0-3.06-1.49-2.63-3.33l9.72-45.97c.35-1.75,2.19-3.24,4.03-3.24h46.49c3.55,0,6.48,1.16,8.28,2.98l-5.73,26.89c-2.58,1.81-6.01,2.96-9.55,2.96Zm80.16-8.68c-2.44,3.42-6.8,5.53-11.48,5.53-.07,0-.14,0-.21,0h-1.14c3.33,.61,5.17,1.66,6.92,3.41,1.1,1.17,2.13,3.03,2.95,4.99l-.88,4.15c-.77,3.54-.14,7.08,1.8,10.11-.39,.11-.81,.18-1.24,.18h-22.15c-1.31,0-2.71-1.66-2.45-2.98,1.05-5.25-.35-20.05-5.87-20.05l1.4-6.57h3.59c1.75,0,4.64-.17,5.17-2.54l2.1-10.24c.44-1.75-2.01-2.54-3.5-2.54h-7.18l-8.93,41.68c-.35,1.66-2.01,3.24-3.76,3.24h-19.79c-1.75,0-2.89-1.58-2.54-3.24l9.81-46.06c.35-1.66,2.1-3.24,3.85-3.24h48.16c4.82,0,8.44,2.14,9.41,5.67-.18,.54-.33,1.08-.44,1.64l-3.58,16.84Zm72.54-15.4l-7.44,35.02c-1.05,4.82-7.18,8.76-13.75,8.76h-37.91c-6.57,0-11.12-3.94-10.07-8.76l7.44-35.02c.96-4.82,7.18-8.76,13.75-8.76h37.91c6.57,0,11.03,3.94,10.07,8.76Zm23.43-22.25c-.26,1.29-.22,2.55,.01,3.76h-11.58c-1.26,0-2.47-1.02-2.47-2.23v-5h-8.91l-2.23,5c-.48,1.2-2.05,2.23-3.25,2.23h-14.86c-1.02,0-1.5-.84-1.26-1.87,.06-.3,.18-.6,.36-.9l16.85-31.11c.6-1.14,2.11-2.23,3.37-2.23h23.23c1.26,0,2.23,1.08,2.35,2.23l1.71,14.53-3.32,15.59Zm52.35,1.54c-.24,1.2-1.38,2.23-2.65,2.23h-11.07c-.66,0-1.32-.06-1.93-.48,0,0-.54-.42-.9-1.2l-6.92-16.79-3.49,16.25c-.24,1.2-1.38,2.23-2.59,2.23h-13.84c-1.2,0-1.99-1.02-1.75-2.23l6.74-31.66c.24-1.2,1.44-2.23,2.65-2.23h11.38c1.32,0,2.05,.48,2.59,1.56l6.74,17.33,3.55-16.67c.24-1.2,1.5-2.23,2.71-2.23h10.4c-.08,.26-.18,.51-.23,.78l-.58,2.92c-.61,2.77,.02,5.58,1.73,7.75,.54,.68,1.19,1.24,1.88,1.73l-4.41,20.71Zm51.05-28.65c-.3,1.26-1.56,2.29-2.77,2.29h-10.17l-5.54,26.3c-.3,1.26-1.5,2.29-2.77,2.29h-13.3c-1.26,0-2.05-1.02-1.75-2.29l5.54-26.3h-10.53c-1.26,0-2.05-1.02-1.75-2.29l.6-3.01c.24-1.2,1.5-2.23,2.77-2.23h38.52c1.2,0,1.99,1.02,1.75,2.23l-.6,3.01Z"/><path class="cls-1" d="M180.23,291.88h-6.31l-4.03,18.56h6.3c2.63,0,5.08-1.14,5.43-2.54l2.8-13.4c.35-1.49-1.58-2.63-4.2-2.63Z"/><path class="cls-1" d="M314.99,291.88c-2.98,0-6.04,2.8-6.83,6.22l-5.25,24.87c-.7,3.42,1.14,6.13,4.12,6.13s6.13-2.71,6.83-6.13l5.25-24.87c.79-3.41-1.05-6.22-4.12-6.22Z"/></svg>