<?xml version="1.0" standalone="no"?><!DOCTYPE svg PUBLIC "-//W3C//DTD SVG 1.1//EN" "http://www.w3.org/Graphics/SVG/1.1/DTD/svg11.dtd"><svg t="1677191212005" class="icon" viewBox="0 0 1024 1024" version="1.1" xmlns="http://www.w3.org/2000/svg" p-id="6059" xmlns:xlink="http://www.w3.org/1999/xlink" width="200" height="200"><path d="M672 384a32 32 0 0 1-22.72-9.28 37.12 37.12 0 0 1-6.72-10.56 30.4 30.4 0 0 1 0-24.32 28.8 28.8 0 0 1 17.28-17.28 29.12 29.12 0 0 1 24.32 0c3.872 1.6 7.456 3.904 10.56 6.72a32 32 0 0 1 6.72 10.56A32 32 0 0 1 704 352a26.88 26.88 0 0 1-2.56 12.16 32 32 0 0 1-6.72 10.56 36.8 36.8 0 0 1-10.56 6.72A32 32 0 0 1 672 384z m-160 288a160 160 0 1 1 0-320 160 160 0 0 1 0 320z m0-256a96 96 0 1 0 0 192 96 96 0 0 0 0-192z m214.72 384H297.28A73.28 73.28 0 0 1 224 726.72V297.28A73.28 73.28 0 0 1 297.28 224h429.44A73.28 73.28 0 0 1 800 297.28v429.44A73.28 73.28 0 0 1 726.72 800zM297.28 288a9.28 9.28 0 0 0-9.28 9.28v429.44a9.28 9.28 0 0 0 9.28 9.28h429.44c5.12 0 9.28-4.16 9.28-9.28V297.28a9.28 9.28 0 0 0-9.28-9.28H297.28z" fill="#202425" p-id="6060"></path></svg>