<?xml version="1.0" standalone="no"?><!DOCTYPE svg PUBLIC "-//W3C//DTD SVG 1.1//EN" "http://www.w3.org/Graphics/SVG/1.1/DTD/svg11.dtd"><svg t="1677191770898" class="icon" viewBox="0 0 1024 1024" version="1.1" xmlns="http://www.w3.org/2000/svg" p-id="8621" xmlns:xlink="http://www.w3.org/1999/xlink" width="200" height="200"><path d="M288 659.84l73.28-73.28a32 32 0 0 1 45.44-0.32l40.512 40.48 105.76-105.76a32 32 0 0 1 45.12 0L736 658.88V288H288v371.84zM302.24 736h164.384L384 653.44 302.208 736z m254.304 0h166.08l-147.2-147.2-83.04 83.04L556.48 736zM544 800H288a64 64 0 0 1-64-64V288a64 64 0 0 1 64-64h448a64 64 0 0 1 64 64v448a64 64 0 0 1-64 64h-192z m-128-320a64 64 0 1 1 0-128 64 64 0 0 1 0 128z" fill="#202425" p-id="8622"></path></svg>