<?xml version="1.0" standalone="no"?><!DOCTYPE svg PUBLIC "-//W3C//DTD SVG 1.1//EN" "http://www.w3.org/Graphics/SVG/1.1/DTD/svg11.dtd"><svg t="1677191147788" class="icon" viewBox="0 0 1024 1024" version="1.1" xmlns="http://www.w3.org/2000/svg" p-id="5349" xmlns:xlink="http://www.w3.org/1999/xlink" width="200" height="200"><path d="M640 288h-256a32 32 0 1 1 0-64h256a32 32 0 0 1 0 64z m0 384h-256a32 32 0 0 1-32-32v-128a32 32 0 0 1 32-32h256a32 32 0 0 1 32 32v128a32 32 0 0 1-32 32z m-224-64h192v-64h-192v64z m320 192H288a64 64 0 0 1-64-64V288a64 64 0 0 1 64-64h128a32 32 0 0 1 32 32v96h128V256a32 32 0 0 1 32-32h32a32 32 0 0 1 22.72 9.28l128 128A32 32 0 0 1 800 384v352a64 64 0 0 1-64 64zM288 288v448h448V397.12l-96-96V384a32 32 0 0 1-32 32h-192a32 32 0 0 1-32-32V288H288z" fill="#231815" p-id="5350"></path></svg>