<?xml version="1.0" standalone="no"?><!DOCTYPE svg PUBLIC "-//W3C//DTD SVG 1.1//EN" "http://www.w3.org/Graphics/SVG/1.1/DTD/svg11.dtd"><svg t="1677191234650" class="icon" viewBox="0 0 1024 1024" version="1.1" xmlns="http://www.w3.org/2000/svg" p-id="6343" xmlns:xlink="http://www.w3.org/1999/xlink" width="200" height="200"><path d="M352 448v-99.2C352 278.4 409.6 224 480 224s128 54.4 128 124.8c0 19.2-12.8 32-32 32s-32-12.8-32-32c0-35.2-28.8-60.8-64-60.8s-64 25.6-64 60.8V448h288c19.2 0 32 12.8 32 32v224c0 54.4-41.6 96-96 96h-256c-54.4 0-96-41.6-96-96v-224c0-19.2 12.8-32 32-32h32z m0 64v192c0 19.2 12.8 32 32 32h256c19.2 0 32-12.8 32-32v-192H352z m160 64c19.2 0 32 12.8 32 32v32c0 19.2-12.8 32-32 32s-32-12.8-32-32v-32c0-19.2 12.8-32 32-32z" fill="#202425" p-id="6344"></path></svg>