<?xml version="1.0" standalone="no"?><!DOCTYPE svg PUBLIC "-//W3C//DTD SVG 1.1//EN" "http://www.w3.org/Graphics/SVG/1.1/DTD/svg11.dtd"><svg t="1677191829934" class="icon" viewBox="0 0 1024 1024" version="1.1" xmlns="http://www.w3.org/2000/svg" p-id="8763" xmlns:xlink="http://www.w3.org/1999/xlink" width="200" height="200"><path d="M736.096 800h-448a32 32 0 0 1-32-32v-49.6a105.92 105.92 0 0 1 100.48-110.4h310.72a105.92 105.92 0 0 1 100.48 110.4V768a32 32 0 0 1-31.68 32z m-416-64h384v-17.6a42.88 42.88 0 0 0-36.48-46.4h-310.72a42.88 42.88 0 0 0-36.48 46.4V736h-0.32z m192-192a128 128 0 0 1-128-128v-64a128 128 0 1 1 256 0v64a128 128 0 0 1-128 128z m0-256a64 64 0 0 0-64 64v64a64 64 0 1 0 128 0v-64a64 64 0 0 0-64-64z" fill="#202425" p-id="8764"></path></svg>