<?xml version="1.0" standalone="no"?><!DOCTYPE svg PUBLIC "-//W3C//DTD SVG 1.1//EN" "http://www.w3.org/Graphics/SVG/1.1/DTD/svg11.dtd"><svg t="1677191130478" class="icon" viewBox="0 0 1024 1024" version="1.1" xmlns="http://www.w3.org/2000/svg" p-id="5067" xmlns:xlink="http://www.w3.org/1999/xlink" width="200" height="200"><path d="M736 416v320a64 64 0 0 1-64 64H352a64 64 0 0 1-64-64V416H256a32 32 0 1 1 0-64h512a32 32 0 0 1 0 64h-32z m-64 0H352v320h320V416z m-224 256a32 32 0 0 1-32-32v-128a32 32 0 1 1 64 0v128a32 32 0 0 1-32 32z m128 0a32 32 0 0 1-32-32v-128a32 32 0 0 1 64 0v128a32 32 0 0 1-32 32z m0-384h-128a32 32 0 1 1 0-64h128a32 32 0 0 1 0 64z" fill="#2c2c2c" p-id="5068"></path></svg>